<mxfile host="app.diagrams.net" modified="2023-03-30T13:50:30.491Z" agent="Mozilla/5.0 (Windows NT 10.0; Win64; x64; rv:109.0) Gecko/20100101 Firefox/111.0" etag="-qhvGB13FcqlHDTqFkIO" version="21.1.2" type="device">
  <diagram id="R2lEEEUBdFMjLlhIrx00" name="Page-1">
    <mxGraphModel dx="1825" dy="1345" grid="1" gridSize="10" guides="1" tooltips="1" connect="1" arrows="1" fold="1" page="0" pageScale="1" pageWidth="850" pageHeight="1100" background="none" math="0" shadow="0" extFonts="Permanent Marker^https://fonts.googleapis.com/css?family=Permanent+Marker">
      <root>
        <mxCell id="0" />
        <mxCell id="1" parent="0" />
        <mxCell id="t3j6wXu3w4N-dWDr2V0--140" style="edgeStyle=orthogonalEdgeStyle;rounded=0;sketch=0;orthogonalLoop=1;jettySize=auto;html=1;exitX=1;exitY=0.5;exitDx=0;exitDy=0;entryX=0;entryY=0.5;entryDx=0;entryDy=0;startArrow=none;startFill=0;endArrow=classic;endFill=1;" parent="1" source="E2j6QWugMsbap5j8bOjD-1" target="E2j6QWugMsbap5j8bOjD-4" edge="1">
          <mxGeometry relative="1" as="geometry" />
        </mxCell>
        <mxCell id="t3j6wXu3w4N-dWDr2V0--144" style="edgeStyle=orthogonalEdgeStyle;rounded=0;sketch=0;orthogonalLoop=1;jettySize=auto;html=1;exitX=0.5;exitY=1;exitDx=0;exitDy=0;entryX=0.5;entryY=0;entryDx=0;entryDy=0;startArrow=none;startFill=0;endArrow=none;endFill=0;" parent="1" source="E2j6QWugMsbap5j8bOjD-1" target="E2j6QWugMsbap5j8bOjD-17" edge="1">
          <mxGeometry relative="1" as="geometry" />
        </mxCell>
        <mxCell id="t3j6wXu3w4N-dWDr2V0--147" style="edgeStyle=orthogonalEdgeStyle;rounded=0;sketch=0;orthogonalLoop=1;jettySize=auto;html=1;exitX=0;exitY=0.75;exitDx=0;exitDy=0;entryX=1;entryY=0.5;entryDx=0;entryDy=0;startArrow=none;startFill=0;endArrow=none;endFill=0;" parent="1" source="E2j6QWugMsbap5j8bOjD-1" target="t3j6wXu3w4N-dWDr2V0--82" edge="1">
          <mxGeometry relative="1" as="geometry" />
        </mxCell>
        <mxCell id="t3j6wXu3w4N-dWDr2V0--148" style="edgeStyle=orthogonalEdgeStyle;rounded=0;sketch=0;orthogonalLoop=1;jettySize=auto;html=1;exitX=0;exitY=0.25;exitDx=0;exitDy=0;entryX=1;entryY=0.5;entryDx=0;entryDy=0;startArrow=none;startFill=0;endArrow=none;endFill=0;" parent="1" source="E2j6QWugMsbap5j8bOjD-1" target="t3j6wXu3w4N-dWDr2V0--126" edge="1">
          <mxGeometry relative="1" as="geometry" />
        </mxCell>
        <mxCell id="t3j6wXu3w4N-dWDr2V0--153" style="edgeStyle=orthogonalEdgeStyle;rounded=0;sketch=0;orthogonalLoop=1;jettySize=auto;html=1;exitX=0.25;exitY=1;exitDx=0;exitDy=0;entryX=0.5;entryY=0;entryDx=0;entryDy=0;startArrow=classic;startFill=1;endArrow=none;endFill=0;" parent="1" source="E2j6QWugMsbap5j8bOjD-1" target="E2j6QWugMsbap5j8bOjD-32" edge="1">
          <mxGeometry relative="1" as="geometry">
            <Array as="points">
              <mxPoint x="1355" y="380" />
              <mxPoint x="1220" y="380" />
            </Array>
          </mxGeometry>
        </mxCell>
        <mxCell id="E2j6QWugMsbap5j8bOjD-1" value="Camion de la empresa" style="rounded=0;whiteSpace=wrap;html=1;" parent="1" vertex="1">
          <mxGeometry x="1320" y="295" width="140" height="60" as="geometry" />
        </mxCell>
        <mxCell id="20" style="edgeStyle=none;html=1;exitX=1;exitY=0.5;exitDx=0;exitDy=0;entryX=0;entryY=0.5;entryDx=0;entryDy=0;startArrow=classic;startFill=1;endArrow=none;endFill=0;rounded=0;" parent="1" source="E2j6QWugMsbap5j8bOjD-2" target="18" edge="1">
          <mxGeometry relative="1" as="geometry" />
        </mxCell>
        <mxCell id="t3j6wXu3w4N-dWDr2V0--151" style="edgeStyle=orthogonalEdgeStyle;rounded=0;sketch=0;orthogonalLoop=1;jettySize=auto;html=1;exitX=1;exitY=0.25;exitDx=0;exitDy=0;entryX=0;entryY=0.5;entryDx=0;entryDy=0;startArrow=none;startFill=0;endArrow=none;endFill=0;" parent="1" source="E2j6QWugMsbap5j8bOjD-2" target="t3j6wXu3w4N-dWDr2V0--111" edge="1">
          <mxGeometry relative="1" as="geometry" />
        </mxCell>
        <mxCell id="t3j6wXu3w4N-dWDr2V0--162" style="edgeStyle=orthogonalEdgeStyle;rounded=0;sketch=0;orthogonalLoop=1;jettySize=auto;html=1;exitX=0.5;exitY=1;exitDx=0;exitDy=0;entryX=0.5;entryY=0;entryDx=0;entryDy=0;startArrow=none;startFill=0;endArrow=classic;endFill=1;" parent="1" source="E2j6QWugMsbap5j8bOjD-2" target="E2j6QWugMsbap5j8bOjD-11" edge="1">
          <mxGeometry relative="1" as="geometry" />
        </mxCell>
        <mxCell id="E_HUkGmcdNxzFi-APGPb-43" style="edgeStyle=orthogonalEdgeStyle;rounded=0;orthogonalLoop=1;jettySize=auto;html=1;exitX=1;exitY=0.75;exitDx=0;exitDy=0;entryX=0;entryY=0.5;entryDx=0;entryDy=0;endArrow=none;endFill=0;" edge="1" parent="1" source="E2j6QWugMsbap5j8bOjD-2" target="E_HUkGmcdNxzFi-APGPb-41">
          <mxGeometry relative="1" as="geometry">
            <Array as="points">
              <mxPoint x="1490" y="515" />
              <mxPoint x="1490" y="530" />
            </Array>
          </mxGeometry>
        </mxCell>
        <mxCell id="E_HUkGmcdNxzFi-APGPb-44" style="edgeStyle=orthogonalEdgeStyle;rounded=0;orthogonalLoop=1;jettySize=auto;html=1;exitX=0.75;exitY=0;exitDx=0;exitDy=0;entryX=0;entryY=0.5;entryDx=0;entryDy=0;endArrow=none;endFill=0;" edge="1" parent="1" source="E2j6QWugMsbap5j8bOjD-2" target="t3j6wXu3w4N-dWDr2V0--103">
          <mxGeometry relative="1" as="geometry" />
        </mxCell>
        <mxCell id="E2j6QWugMsbap5j8bOjD-2" value="Chofer" style="rounded=0;whiteSpace=wrap;html=1;" parent="1" vertex="1">
          <mxGeometry x="1320" y="470" width="140" height="60" as="geometry" />
        </mxCell>
        <mxCell id="E2j6QWugMsbap5j8bOjD-3" value="Vehiculo" style="rounded=0;whiteSpace=wrap;html=1;" parent="1" vertex="1">
          <mxGeometry x="1680" y="180" width="140" height="60" as="geometry" />
        </mxCell>
        <mxCell id="E2j6QWugMsbap5j8bOjD-54" style="edgeStyle=orthogonalEdgeStyle;rounded=0;orthogonalLoop=1;jettySize=auto;html=1;exitX=0.5;exitY=0;exitDx=0;exitDy=0;entryX=0.5;entryY=1;entryDx=0;entryDy=0;startArrow=none;startFill=0;endArrow=none;endFill=0;" parent="1" source="E2j6QWugMsbap5j8bOjD-4" target="E2j6QWugMsbap5j8bOjD-3" edge="1">
          <mxGeometry relative="1" as="geometry" />
        </mxCell>
        <mxCell id="E2j6QWugMsbap5j8bOjD-4" value="Camion" style="rounded=0;whiteSpace=wrap;html=1;" parent="1" vertex="1">
          <mxGeometry x="1620" y="310" width="80" height="30" as="geometry" />
        </mxCell>
        <mxCell id="E2j6QWugMsbap5j8bOjD-57" style="edgeStyle=orthogonalEdgeStyle;rounded=0;orthogonalLoop=1;jettySize=auto;html=1;exitX=0.5;exitY=0;exitDx=0;exitDy=0;entryX=0.5;entryY=1;entryDx=0;entryDy=0;startArrow=none;startFill=0;endArrow=none;endFill=0;" parent="1" source="E2j6QWugMsbap5j8bOjD-6" target="E2j6QWugMsbap5j8bOjD-3" edge="1">
          <mxGeometry relative="1" as="geometry" />
        </mxCell>
        <mxCell id="E2j6QWugMsbap5j8bOjD-6" value="Auto" style="rounded=0;whiteSpace=wrap;html=1;" parent="1" vertex="1">
          <mxGeometry x="1710" y="310" width="80" height="30" as="geometry" />
        </mxCell>
        <mxCell id="E2j6QWugMsbap5j8bOjD-59" style="edgeStyle=orthogonalEdgeStyle;rounded=0;orthogonalLoop=1;jettySize=auto;html=1;exitX=0.5;exitY=0;exitDx=0;exitDy=0;entryX=0.5;entryY=1;entryDx=0;entryDy=0;startArrow=none;startFill=0;endArrow=classic;endFill=0;" parent="1" source="E2j6QWugMsbap5j8bOjD-7" target="E2j6QWugMsbap5j8bOjD-3" edge="1">
          <mxGeometry relative="1" as="geometry" />
        </mxCell>
        <mxCell id="E2j6QWugMsbap5j8bOjD-7" value="Moto" style="rounded=0;whiteSpace=wrap;html=1;" parent="1" vertex="1">
          <mxGeometry x="1800" y="310" width="80" height="30" as="geometry" />
        </mxCell>
        <mxCell id="E2j6QWugMsbap5j8bOjD-64" style="edgeStyle=orthogonalEdgeStyle;shape=link;rounded=0;orthogonalLoop=1;jettySize=auto;html=1;exitX=0.5;exitY=1;exitDx=0;exitDy=0;startArrow=none;startFill=0;endArrow=none;endFill=0;" parent="1" source="E2j6QWugMsbap5j8bOjD-9" target="E2j6QWugMsbap5j8bOjD-10" edge="1">
          <mxGeometry relative="1" as="geometry" />
        </mxCell>
        <mxCell id="t3j6wXu3w4N-dWDr2V0--96" style="edgeStyle=orthogonalEdgeStyle;rounded=0;orthogonalLoop=1;jettySize=auto;html=1;exitX=1;exitY=0.25;exitDx=0;exitDy=0;entryX=0;entryY=0.5;entryDx=0;entryDy=0;endArrow=none;endFill=0;" parent="1" source="E2j6QWugMsbap5j8bOjD-9" target="t3j6wXu3w4N-dWDr2V0--94" edge="1">
          <mxGeometry relative="1" as="geometry" />
        </mxCell>
        <mxCell id="t3j6wXu3w4N-dWDr2V0--97" style="edgeStyle=orthogonalEdgeStyle;rounded=0;orthogonalLoop=1;jettySize=auto;html=1;exitX=1;exitY=0.75;exitDx=0;exitDy=0;entryX=0;entryY=0.5;entryDx=0;entryDy=0;endArrow=none;endFill=0;" parent="1" source="E2j6QWugMsbap5j8bOjD-9" target="t3j6wXu3w4N-dWDr2V0--95" edge="1">
          <mxGeometry relative="1" as="geometry" />
        </mxCell>
        <mxCell id="E2j6QWugMsbap5j8bOjD-9" value="Choque" style="shape=ext;margin=3;double=1;whiteSpace=wrap;html=1;align=center;rounded=0;" parent="1" vertex="1">
          <mxGeometry x="2010" y="470" width="140" height="60" as="geometry" />
        </mxCell>
        <mxCell id="28" style="edgeStyle=none;html=1;exitX=0.5;exitY=1;exitDx=0;exitDy=0;entryX=0.5;entryY=0;entryDx=0;entryDy=0;startArrow=none;startFill=0;endArrow=classic;endFill=1;rounded=0;" parent="1" source="E2j6QWugMsbap5j8bOjD-10" target="E2j6QWugMsbap5j8bOjD-15" edge="1">
          <mxGeometry relative="1" as="geometry" />
        </mxCell>
        <mxCell id="E2j6QWugMsbap5j8bOjD-10" value="Sucedio" style="shape=rhombus;double=1;perimeter=rhombusPerimeter;whiteSpace=wrap;html=1;align=center;rounded=0;" parent="1" vertex="1">
          <mxGeometry x="2040" y="580" width="80" height="50" as="geometry" />
        </mxCell>
        <mxCell id="t3j6wXu3w4N-dWDr2V0--163" style="edgeStyle=orthogonalEdgeStyle;rounded=0;sketch=0;orthogonalLoop=1;jettySize=auto;html=1;exitX=1;exitY=0.5;exitDx=0;exitDy=0;entryX=0;entryY=0.5;entryDx=0;entryDy=0;startArrow=none;startFill=0;endArrow=none;endFill=0;" parent="1" source="E2j6QWugMsbap5j8bOjD-11" target="t3j6wXu3w4N-dWDr2V0--129" edge="1">
          <mxGeometry relative="1" as="geometry" />
        </mxCell>
        <mxCell id="t3j6wXu3w4N-dWDr2V0--166" style="edgeStyle=orthogonalEdgeStyle;rounded=0;sketch=0;orthogonalLoop=1;jettySize=auto;html=1;exitX=0.5;exitY=1;exitDx=0;exitDy=0;entryX=0.5;entryY=0;entryDx=0;entryDy=0;startArrow=none;startFill=0;endArrow=none;endFill=0;" parent="1" source="E2j6QWugMsbap5j8bOjD-11" target="t3j6wXu3w4N-dWDr2V0--105" edge="1">
          <mxGeometry relative="1" as="geometry" />
        </mxCell>
        <mxCell id="E2j6QWugMsbap5j8bOjD-11" value="Persona" style="whiteSpace=wrap;html=1;align=center;rounded=0;" parent="1" vertex="1">
          <mxGeometry x="1320" y="575" width="140" height="60" as="geometry" />
        </mxCell>
        <mxCell id="E2j6QWugMsbap5j8bOjD-93" style="edgeStyle=orthogonalEdgeStyle;rounded=0;orthogonalLoop=1;jettySize=auto;html=1;exitX=1;exitY=0.75;exitDx=0;exitDy=0;entryX=0;entryY=0.5;entryDx=0;entryDy=0;strokeWidth=0.5;startArrow=none;startFill=0;endArrow=none;endFill=0;" parent="1" source="E2j6QWugMsbap5j8bOjD-12" target="E2j6QWugMsbap5j8bOjD-92" edge="1">
          <mxGeometry relative="1" as="geometry" />
        </mxCell>
        <mxCell id="10" style="edgeStyle=none;html=1;exitX=0.5;exitY=1;exitDx=0;exitDy=0;entryX=0.5;entryY=0;entryDx=0;entryDy=0;endArrow=none;endFill=0;startArrow=classic;startFill=1;rounded=0;" parent="1" source="E2j6QWugMsbap5j8bOjD-12" target="9" edge="1">
          <mxGeometry relative="1" as="geometry" />
        </mxCell>
        <mxCell id="E_HUkGmcdNxzFi-APGPb-51" style="edgeStyle=orthogonalEdgeStyle;rounded=0;orthogonalLoop=1;jettySize=auto;html=1;exitX=1;exitY=0.25;exitDx=0;exitDy=0;entryX=0.5;entryY=1;entryDx=0;entryDy=0;endArrow=none;endFill=0;" edge="1" parent="1" source="E2j6QWugMsbap5j8bOjD-12" target="E_HUkGmcdNxzFi-APGPb-45">
          <mxGeometry relative="1" as="geometry">
            <Array as="points">
              <mxPoint x="1440" y="690" />
              <mxPoint x="1440" y="660" />
              <mxPoint x="1840" y="660" />
            </Array>
          </mxGeometry>
        </mxCell>
        <mxCell id="E2j6QWugMsbap5j8bOjD-12" value="Viaje" style="whiteSpace=wrap;html=1;align=center;rounded=0;" parent="1" vertex="1">
          <mxGeometry x="1150" y="675" width="140" height="60" as="geometry" />
        </mxCell>
        <mxCell id="E2j6QWugMsbap5j8bOjD-90" style="edgeStyle=orthogonalEdgeStyle;rounded=0;orthogonalLoop=1;jettySize=auto;html=1;exitX=1;exitY=0.5;exitDx=0;exitDy=0;entryX=0;entryY=0.5;entryDx=0;entryDy=0;strokeWidth=0.5;startArrow=none;startFill=0;endArrow=none;endFill=0;" parent="1" source="E2j6QWugMsbap5j8bOjD-14" target="E2j6QWugMsbap5j8bOjD-71" edge="1">
          <mxGeometry relative="1" as="geometry" />
        </mxCell>
        <mxCell id="21" style="edgeStyle=none;html=1;exitX=1;exitY=0.5;exitDx=0;exitDy=0;entryX=0;entryY=0.5;entryDx=0;entryDy=0;startArrow=none;startFill=0;endArrow=none;endFill=0;rounded=0;" parent="1" source="18" target="E2j6QWugMsbap5j8bOjD-9" edge="1">
          <mxGeometry relative="1" as="geometry" />
        </mxCell>
        <mxCell id="t3j6wXu3w4N-dWDr2V0--116" style="edgeStyle=orthogonalEdgeStyle;rounded=0;orthogonalLoop=1;jettySize=auto;html=1;exitX=1;exitY=0.5;exitDx=0;exitDy=0;entryX=0;entryY=0.5;entryDx=0;entryDy=0;endArrow=none;endFill=0;" parent="1" source="E2j6QWugMsbap5j8bOjD-15" target="t3j6wXu3w4N-dWDr2V0--115" edge="1">
          <mxGeometry relative="1" as="geometry" />
        </mxCell>
        <mxCell id="E2j6QWugMsbap5j8bOjD-15" value="Provincia" style="whiteSpace=wrap;html=1;align=center;rounded=0;" parent="1" vertex="1">
          <mxGeometry x="2010" y="690" width="140" height="60" as="geometry" />
        </mxCell>
        <mxCell id="9" value="Entregó" style="shape=rhombus;perimeter=rhombusPerimeter;whiteSpace=wrap;html=1;align=center;rounded=0;" parent="1" vertex="1">
          <mxGeometry x="1160" y="790" width="120" height="60" as="geometry" />
        </mxCell>
        <mxCell id="t3j6wXu3w4N-dWDr2V0--69" style="edgeStyle=orthogonalEdgeStyle;rounded=0;orthogonalLoop=1;jettySize=auto;html=1;exitX=0.25;exitY=1;exitDx=0;exitDy=0;entryX=1;entryY=0.5;entryDx=0;entryDy=0;endArrow=none;endFill=0;" parent="1" source="E2j6QWugMsbap5j8bOjD-38" target="t3j6wXu3w4N-dWDr2V0--58" edge="1">
          <mxGeometry relative="1" as="geometry" />
        </mxCell>
        <mxCell id="t3j6wXu3w4N-dWDr2V0--93" style="edgeStyle=orthogonalEdgeStyle;rounded=0;orthogonalLoop=1;jettySize=auto;html=1;exitX=0;exitY=0.5;exitDx=0;exitDy=0;entryX=1;entryY=0.5;entryDx=0;entryDy=0;endArrow=none;endFill=0;" parent="1" source="E2j6QWugMsbap5j8bOjD-38" target="t3j6wXu3w4N-dWDr2V0--62" edge="1">
          <mxGeometry relative="1" as="geometry" />
        </mxCell>
        <mxCell id="E2j6QWugMsbap5j8bOjD-38" value="Paquete" style="whiteSpace=wrap;html=1;align=center;rounded=0;" parent="1" vertex="1">
          <mxGeometry x="1150" y="900" width="140" height="80" as="geometry" />
        </mxCell>
        <mxCell id="E2j6QWugMsbap5j8bOjD-47" value="Destino" style="shape=rhombus;perimeter=rhombusPerimeter;whiteSpace=wrap;html=1;align=center;rounded=0;" parent="1" vertex="1">
          <mxGeometry x="1370" y="910" width="120" height="60" as="geometry" />
        </mxCell>
        <mxCell id="22" style="edgeStyle=none;html=1;exitX=0;exitY=0.5;exitDx=0;exitDy=0;entryX=1;entryY=0.5;entryDx=0;entryDy=0;startArrow=none;startFill=0;endArrow=none;endFill=0;rounded=0;" parent="1" source="19" target="E2j6QWugMsbap5j8bOjD-3" edge="1">
          <mxGeometry relative="1" as="geometry" />
        </mxCell>
        <mxCell id="t3j6wXu3w4N-dWDr2V0--158" style="edgeStyle=orthogonalEdgeStyle;rounded=0;sketch=0;orthogonalLoop=1;jettySize=auto;html=1;exitX=0;exitY=1;exitDx=0;exitDy=0;entryX=0.5;entryY=0;entryDx=0;entryDy=0;startArrow=none;startFill=0;endArrow=none;endFill=0;" parent="1" source="18" target="t3j6wXu3w4N-dWDr2V0--98" edge="1">
          <mxGeometry relative="1" as="geometry" />
        </mxCell>
        <mxCell id="t3j6wXu3w4N-dWDr2V0--159" style="edgeStyle=orthogonalEdgeStyle;rounded=0;sketch=0;orthogonalLoop=1;jettySize=auto;html=1;exitX=1;exitY=1;exitDx=0;exitDy=0;entryX=0.5;entryY=0;entryDx=0;entryDy=0;startArrow=none;startFill=0;endArrow=none;endFill=0;" parent="1" source="18" target="t3j6wXu3w4N-dWDr2V0--99" edge="1">
          <mxGeometry relative="1" as="geometry" />
        </mxCell>
        <mxCell id="t3j6wXu3w4N-dWDr2V0--161" style="edgeStyle=orthogonalEdgeStyle;rounded=0;sketch=0;orthogonalLoop=1;jettySize=auto;html=1;exitX=0.5;exitY=0;exitDx=0;exitDy=0;entryX=0.75;entryY=1;entryDx=0;entryDy=0;startArrow=none;startFill=0;endArrow=classic;endFill=1;" parent="1" source="18" target="E2j6QWugMsbap5j8bOjD-1" edge="1">
          <mxGeometry relative="1" as="geometry">
            <Array as="points">
              <mxPoint x="1820" y="380" />
              <mxPoint x="1425" y="380" />
            </Array>
          </mxGeometry>
        </mxCell>
        <mxCell id="18" value="Participó" style="shape=rhombus;perimeter=rhombusPerimeter;whiteSpace=wrap;html=1;align=center;rounded=0;" parent="1" vertex="1">
          <mxGeometry x="1760" y="470" width="120" height="60" as="geometry" />
        </mxCell>
        <mxCell id="t3j6wXu3w4N-dWDr2V0--143" style="edgeStyle=orthogonalEdgeStyle;rounded=0;sketch=0;orthogonalLoop=1;jettySize=auto;html=1;exitX=0.5;exitY=1;exitDx=0;exitDy=0;entryX=0.5;entryY=0;entryDx=0;entryDy=0;startArrow=none;startFill=0;endArrow=none;endFill=0;" parent="1" source="19" target="E2j6QWugMsbap5j8bOjD-9" edge="1">
          <mxGeometry relative="1" as="geometry" />
        </mxCell>
        <mxCell id="19" value="Participo en" style="shape=rhombus;perimeter=rhombusPerimeter;whiteSpace=wrap;html=1;align=center;rounded=0;" parent="1" vertex="1">
          <mxGeometry x="2020" y="180" width="120" height="60" as="geometry" />
        </mxCell>
        <mxCell id="t3j6wXu3w4N-dWDr2V0--119" style="edgeStyle=orthogonalEdgeStyle;rounded=0;orthogonalLoop=1;jettySize=auto;html=1;exitX=0.75;exitY=1;exitDx=0;exitDy=0;entryX=0.5;entryY=0;entryDx=0;entryDy=0;endArrow=none;endFill=0;" parent="1" source="E2j6QWugMsbap5j8bOjD-14" target="t3j6wXu3w4N-dWDr2V0--114" edge="1">
          <mxGeometry relative="1" as="geometry" />
        </mxCell>
        <mxCell id="E2j6QWugMsbap5j8bOjD-14" value="Localidad" style="whiteSpace=wrap;html=1;align=center;rounded=0;" parent="1" vertex="1">
          <mxGeometry x="1600" y="690" width="100" height="60" as="geometry" />
        </mxCell>
        <mxCell id="t3j6wXu3w4N-dWDr2V0--54" style="edgeStyle=orthogonalEdgeStyle;rounded=0;orthogonalLoop=1;jettySize=auto;html=1;exitX=1;exitY=0.5;exitDx=0;exitDy=0;entryX=0;entryY=0.5;entryDx=0;entryDy=0;endArrow=none;endFill=0;" parent="1" source="E2j6QWugMsbap5j8bOjD-39" target="t3j6wXu3w4N-dWDr2V0--121" edge="1">
          <mxGeometry relative="1" as="geometry">
            <mxPoint x="1700" y="940" as="targetPoint" />
          </mxGeometry>
        </mxCell>
        <mxCell id="t3j6wXu3w4N-dWDr2V0--56" style="edgeStyle=orthogonalEdgeStyle;rounded=0;orthogonalLoop=1;jettySize=auto;html=1;exitX=1;exitY=0.25;exitDx=0;exitDy=0;entryX=0;entryY=0.5;entryDx=0;entryDy=0;endArrow=none;endFill=0;" parent="1" source="E2j6QWugMsbap5j8bOjD-39" target="t3j6wXu3w4N-dWDr2V0--49" edge="1">
          <mxGeometry relative="1" as="geometry" />
        </mxCell>
        <mxCell id="t3j6wXu3w4N-dWDr2V0--57" style="edgeStyle=orthogonalEdgeStyle;rounded=0;orthogonalLoop=1;jettySize=auto;html=1;exitX=1;exitY=0.75;exitDx=0;exitDy=0;entryX=0;entryY=0.5;entryDx=0;entryDy=0;endArrow=none;endFill=0;" parent="1" source="E2j6QWugMsbap5j8bOjD-39" target="t3j6wXu3w4N-dWDr2V0--52" edge="1">
          <mxGeometry relative="1" as="geometry" />
        </mxCell>
        <mxCell id="E2j6QWugMsbap5j8bOjD-39" value="Direccion" style="whiteSpace=wrap;html=1;align=center;rounded=0;" parent="1" vertex="1">
          <mxGeometry x="1560" y="920" width="100" height="40" as="geometry" />
        </mxCell>
        <mxCell id="t3j6wXu3w4N-dWDr2V0--145" style="edgeStyle=orthogonalEdgeStyle;rounded=0;sketch=0;orthogonalLoop=1;jettySize=auto;html=1;exitX=0.5;exitY=1;exitDx=0;exitDy=0;entryX=0.5;entryY=0;entryDx=0;entryDy=0;startArrow=none;startFill=0;endArrow=none;endFill=0;" parent="1" source="E2j6QWugMsbap5j8bOjD-17" target="E2j6QWugMsbap5j8bOjD-2" edge="1">
          <mxGeometry relative="1" as="geometry" />
        </mxCell>
        <mxCell id="E2j6QWugMsbap5j8bOjD-17" value="Conduce" style="shape=rhombus;perimeter=rhombusPerimeter;whiteSpace=wrap;html=1;align=center;rounded=0;" parent="1" vertex="1">
          <mxGeometry x="1330" y="380" width="120" height="60" as="geometry" />
        </mxCell>
        <mxCell id="t3j6wXu3w4N-dWDr2V0--77" style="edgeStyle=orthogonalEdgeStyle;rounded=0;orthogonalLoop=1;jettySize=auto;html=1;exitX=0.5;exitY=1;exitDx=0;exitDy=0;entryX=0.5;entryY=0;entryDx=0;entryDy=0;endArrow=none;endFill=0;" parent="1" source="E2j6QWugMsbap5j8bOjD-32" target="E2j6QWugMsbap5j8bOjD-12" edge="1">
          <mxGeometry relative="1" as="geometry" />
        </mxCell>
        <mxCell id="t3j6wXu3w4N-dWDr2V0--136" style="edgeStyle=orthogonalEdgeStyle;rounded=0;sketch=0;orthogonalLoop=1;jettySize=auto;html=1;exitX=1;exitY=0.5;exitDx=0;exitDy=0;entryX=0;entryY=0.5;entryDx=0;entryDy=0;startArrow=none;startFill=0;endArrow=classic;endFill=1;" parent="1" source="E2j6QWugMsbap5j8bOjD-32" target="E2j6QWugMsbap5j8bOjD-2" edge="1">
          <mxGeometry relative="1" as="geometry" />
        </mxCell>
        <mxCell id="E2j6QWugMsbap5j8bOjD-32" value="Realizo" style="shape=rhombus;perimeter=rhombusPerimeter;whiteSpace=wrap;html=1;align=center;rounded=0;" parent="1" vertex="1">
          <mxGeometry x="1160" y="475" width="120" height="50" as="geometry" />
        </mxCell>
        <mxCell id="16" style="edgeStyle=none;html=1;exitX=1;exitY=0.5;exitDx=0;exitDy=0;entryX=0;entryY=0.5;entryDx=0;entryDy=0;endArrow=none;endFill=0;rounded=0;" parent="1" source="E2j6QWugMsbap5j8bOjD-38" target="E2j6QWugMsbap5j8bOjD-47" edge="1">
          <mxGeometry relative="1" as="geometry" />
        </mxCell>
        <mxCell id="17" style="edgeStyle=none;html=1;exitX=1;exitY=0.5;exitDx=0;exitDy=0;entryX=0;entryY=0.5;entryDx=0;entryDy=0;rounded=0;" parent="1" source="E2j6QWugMsbap5j8bOjD-47" target="E2j6QWugMsbap5j8bOjD-39" edge="1">
          <mxGeometry relative="1" as="geometry" />
        </mxCell>
        <mxCell id="E2j6QWugMsbap5j8bOjD-91" style="edgeStyle=orthogonalEdgeStyle;rounded=0;orthogonalLoop=1;jettySize=auto;html=1;exitX=1;exitY=0.5;exitDx=0;exitDy=0;entryX=0;entryY=0.5;entryDx=0;entryDy=0;strokeWidth=0.5;startArrow=none;startFill=0;endArrow=classic;endFill=1;" parent="1" source="E2j6QWugMsbap5j8bOjD-71" target="E2j6QWugMsbap5j8bOjD-15" edge="1">
          <mxGeometry relative="1" as="geometry" />
        </mxCell>
        <mxCell id="E2j6QWugMsbap5j8bOjD-71" value="Esta en" style="shape=rhombus;perimeter=rhombusPerimeter;whiteSpace=wrap;html=1;align=center;rounded=0;" parent="1" vertex="1">
          <mxGeometry x="1800" y="690" width="120" height="60" as="geometry" />
        </mxCell>
        <mxCell id="E2j6QWugMsbap5j8bOjD-94" style="edgeStyle=orthogonalEdgeStyle;rounded=0;orthogonalLoop=1;jettySize=auto;html=1;exitX=1;exitY=0.5;exitDx=0;exitDy=0;entryX=0;entryY=0.5;entryDx=0;entryDy=0;strokeWidth=0.5;startArrow=none;startFill=0;endArrow=none;endFill=0;" parent="1" source="E2j6QWugMsbap5j8bOjD-92" target="E2j6QWugMsbap5j8bOjD-14" edge="1">
          <mxGeometry relative="1" as="geometry" />
        </mxCell>
        <mxCell id="E2j6QWugMsbap5j8bOjD-92" value="Recorrio" style="shape=rhombus;perimeter=rhombusPerimeter;whiteSpace=wrap;html=1;align=center;rounded=0;" parent="1" vertex="1">
          <mxGeometry x="1420" y="690" width="120" height="60" as="geometry" />
        </mxCell>
        <mxCell id="15" style="edgeStyle=none;html=1;exitX=0.5;exitY=1;exitDx=0;exitDy=0;entryX=0.5;entryY=0;entryDx=0;entryDy=0;endArrow=none;endFill=0;rounded=0;" parent="1" source="9" target="E2j6QWugMsbap5j8bOjD-38" edge="1">
          <mxGeometry relative="1" as="geometry" />
        </mxCell>
        <mxCell id="41" value="Marca" style="edgeStyle=none;html=1;exitX=0.75;exitY=1;exitDx=0;exitDy=0;entryX=0.5;entryY=0;entryDx=0;entryDy=0;endArrow=none;endFill=0;" parent="1" edge="1">
          <mxGeometry x="1150" y="60" width="60" height="30" as="geometry" />
        </mxCell>
        <mxCell id="t3j6wXu3w4N-dWDr2V0--49" value="calle" style="ellipse;whiteSpace=wrap;html=1;align=center;fontStyle=4;" parent="1" vertex="1">
          <mxGeometry x="1705" y="900" width="50" height="20" as="geometry" />
        </mxCell>
        <mxCell id="t3j6wXu3w4N-dWDr2V0--52" value="numero" style="ellipse;whiteSpace=wrap;html=1;align=center;fontStyle=4;" parent="1" vertex="1">
          <mxGeometry x="1700" y="960" width="60" height="20" as="geometry" />
        </mxCell>
        <mxCell id="t3j6wXu3w4N-dWDr2V0--58" value="num" style="ellipse;whiteSpace=wrap;html=1;align=center;fontStyle=4;" parent="1" vertex="1">
          <mxGeometry x="1030" y="990" width="60" height="20" as="geometry" />
        </mxCell>
        <mxCell id="t3j6wXu3w4N-dWDr2V0--65" style="edgeStyle=orthogonalEdgeStyle;rounded=0;orthogonalLoop=1;jettySize=auto;html=1;exitX=1;exitY=0.5;exitDx=0;exitDy=0;entryX=0.25;entryY=0;entryDx=0;entryDy=0;endArrow=none;endFill=0;" parent="1" source="t3j6wXu3w4N-dWDr2V0--59" target="E2j6QWugMsbap5j8bOjD-38" edge="1">
          <mxGeometry relative="1" as="geometry" />
        </mxCell>
        <mxCell id="t3j6wXu3w4N-dWDr2V0--59" value="DNI destinatario" style="ellipse;whiteSpace=wrap;html=1;align=center;" parent="1" vertex="1">
          <mxGeometry x="1010" y="870" width="100" height="20" as="geometry" />
        </mxCell>
        <mxCell id="t3j6wXu3w4N-dWDr2V0--66" style="edgeStyle=orthogonalEdgeStyle;rounded=0;orthogonalLoop=1;jettySize=auto;html=1;exitX=1;exitY=0.5;exitDx=0;exitDy=0;entryX=0;entryY=0.25;entryDx=0;entryDy=0;endArrow=none;endFill=0;" parent="1" source="t3j6wXu3w4N-dWDr2V0--60" target="E2j6QWugMsbap5j8bOjD-38" edge="1">
          <mxGeometry relative="1" as="geometry" />
        </mxCell>
        <mxCell id="t3j6wXu3w4N-dWDr2V0--60" value="datos remitente" style="ellipse;whiteSpace=wrap;html=1;align=center;" parent="1" vertex="1">
          <mxGeometry x="1010" y="900" width="100" height="20" as="geometry" />
        </mxCell>
        <mxCell id="t3j6wXu3w4N-dWDr2V0--68" style="edgeStyle=orthogonalEdgeStyle;rounded=0;orthogonalLoop=1;jettySize=auto;html=1;exitX=1;exitY=0.5;exitDx=0;exitDy=0;entryX=0;entryY=0.75;entryDx=0;entryDy=0;endArrow=none;endFill=0;" parent="1" source="t3j6wXu3w4N-dWDr2V0--61" target="E2j6QWugMsbap5j8bOjD-38" edge="1">
          <mxGeometry relative="1" as="geometry" />
        </mxCell>
        <mxCell id="t3j6wXu3w4N-dWDr2V0--61" value="valor asegurado" style="ellipse;whiteSpace=wrap;html=1;align=center;" parent="1" vertex="1">
          <mxGeometry x="1010" y="960" width="100" height="20" as="geometry" />
        </mxCell>
        <mxCell id="t3j6wXu3w4N-dWDr2V0--62" value="precio traslado" style="ellipse;whiteSpace=wrap;html=1;align=center;" parent="1" vertex="1">
          <mxGeometry x="1010" y="930" width="100" height="20" as="geometry" />
        </mxCell>
        <mxCell id="t3j6wXu3w4N-dWDr2V0--79" style="edgeStyle=orthogonalEdgeStyle;rounded=0;orthogonalLoop=1;jettySize=auto;html=1;exitX=1;exitY=0.5;exitDx=0;exitDy=0;entryX=0;entryY=0.25;entryDx=0;entryDy=0;endArrow=none;endFill=0;" parent="1" source="t3j6wXu3w4N-dWDr2V0--70" target="E2j6QWugMsbap5j8bOjD-12" edge="1">
          <mxGeometry relative="1" as="geometry">
            <Array as="points">
              <mxPoint x="1110" y="675" />
              <mxPoint x="1110" y="690" />
            </Array>
          </mxGeometry>
        </mxCell>
        <mxCell id="t3j6wXu3w4N-dWDr2V0--70" value="Kilometros" style="ellipse;whiteSpace=wrap;html=1;align=center;" parent="1" vertex="1">
          <mxGeometry x="1005" y="667.5" width="70" height="15" as="geometry" />
        </mxCell>
        <mxCell id="t3j6wXu3w4N-dWDr2V0--80" style="edgeStyle=orthogonalEdgeStyle;rounded=0;orthogonalLoop=1;jettySize=auto;html=1;exitX=1;exitY=0.5;exitDx=0;exitDy=0;entryX=0;entryY=0.5;entryDx=0;entryDy=0;endArrow=none;endFill=0;" parent="1" source="t3j6wXu3w4N-dWDr2V0--71" target="E2j6QWugMsbap5j8bOjD-12" edge="1">
          <mxGeometry relative="1" as="geometry" />
        </mxCell>
        <mxCell id="t3j6wXu3w4N-dWDr2V0--71" value="Fecha salida" style="ellipse;whiteSpace=wrap;html=1;align=center;" parent="1" vertex="1">
          <mxGeometry x="1000" y="695" width="80" height="20" as="geometry" />
        </mxCell>
        <mxCell id="t3j6wXu3w4N-dWDr2V0--81" style="edgeStyle=orthogonalEdgeStyle;rounded=0;orthogonalLoop=1;jettySize=auto;html=1;exitX=1;exitY=0.5;exitDx=0;exitDy=0;entryX=0;entryY=0.75;entryDx=0;entryDy=0;endArrow=none;endFill=0;" parent="1" source="t3j6wXu3w4N-dWDr2V0--72" target="E2j6QWugMsbap5j8bOjD-12" edge="1">
          <mxGeometry relative="1" as="geometry">
            <Array as="points">
              <mxPoint x="1110" y="739" />
              <mxPoint x="1110" y="720" />
            </Array>
          </mxGeometry>
        </mxCell>
        <mxCell id="t3j6wXu3w4N-dWDr2V0--72" value="Fecha entrada" style="ellipse;whiteSpace=wrap;html=1;align=center;" parent="1" vertex="1">
          <mxGeometry x="992.5" y="727.5" width="95" height="22.5" as="geometry" />
        </mxCell>
        <mxCell id="t3j6wXu3w4N-dWDr2V0--78" style="edgeStyle=orthogonalEdgeStyle;rounded=0;orthogonalLoop=1;jettySize=auto;html=1;exitX=1;exitY=0.5;exitDx=0;exitDy=0;entryX=0.25;entryY=0;entryDx=0;entryDy=0;endArrow=none;endFill=0;" parent="1" source="t3j6wXu3w4N-dWDr2V0--76" target="E2j6QWugMsbap5j8bOjD-12" edge="1">
          <mxGeometry relative="1" as="geometry" />
        </mxCell>
        <mxCell id="t3j6wXu3w4N-dWDr2V0--76" value="Num" style="ellipse;whiteSpace=wrap;html=1;align=center;fontStyle=4;" parent="1" vertex="1">
          <mxGeometry x="1010" y="640" width="60" height="20" as="geometry" />
        </mxCell>
        <mxCell id="t3j6wXu3w4N-dWDr2V0--82" value="Kilometraje" style="ellipse;whiteSpace=wrap;html=1;align=center;" parent="1" vertex="1">
          <mxGeometry x="1210" y="330" width="70" height="20" as="geometry" />
        </mxCell>
        <mxCell id="t3j6wXu3w4N-dWDr2V0--89" style="edgeStyle=orthogonalEdgeStyle;rounded=0;orthogonalLoop=1;jettySize=auto;html=1;exitX=1;exitY=0.5;exitDx=0;exitDy=0;entryX=0;entryY=0.5;entryDx=0;entryDy=0;endArrow=none;endFill=0;" parent="1" source="t3j6wXu3w4N-dWDr2V0--84" target="E2j6QWugMsbap5j8bOjD-3" edge="1">
          <mxGeometry relative="1" as="geometry" />
        </mxCell>
        <mxCell id="t3j6wXu3w4N-dWDr2V0--84" value="marca" style="ellipse;whiteSpace=wrap;html=1;align=center;" parent="1" vertex="1">
          <mxGeometry x="1580" y="200" width="50" height="20" as="geometry" />
        </mxCell>
        <mxCell id="t3j6wXu3w4N-dWDr2V0--91" style="edgeStyle=orthogonalEdgeStyle;rounded=0;orthogonalLoop=1;jettySize=auto;html=1;exitX=1;exitY=0.5;exitDx=0;exitDy=0;entryX=0;entryY=0.75;entryDx=0;entryDy=0;endArrow=none;endFill=0;" parent="1" source="t3j6wXu3w4N-dWDr2V0--85" target="E2j6QWugMsbap5j8bOjD-3" edge="1">
          <mxGeometry relative="1" as="geometry" />
        </mxCell>
        <mxCell id="t3j6wXu3w4N-dWDr2V0--85" value="seguro" style="ellipse;whiteSpace=wrap;html=1;align=center;" parent="1" vertex="1">
          <mxGeometry x="1580" y="230" width="50" height="20" as="geometry" />
        </mxCell>
        <mxCell id="t3j6wXu3w4N-dWDr2V0--90" style="edgeStyle=orthogonalEdgeStyle;rounded=0;orthogonalLoop=1;jettySize=auto;html=1;exitX=1;exitY=0.5;exitDx=0;exitDy=0;entryX=0;entryY=0.25;entryDx=0;entryDy=0;endArrow=none;endFill=0;" parent="1" source="t3j6wXu3w4N-dWDr2V0--86" target="E2j6QWugMsbap5j8bOjD-3" edge="1">
          <mxGeometry relative="1" as="geometry" />
        </mxCell>
        <mxCell id="t3j6wXu3w4N-dWDr2V0--86" value="modelo" style="ellipse;whiteSpace=wrap;html=1;align=center;" parent="1" vertex="1">
          <mxGeometry x="1580" y="170" width="50" height="20" as="geometry" />
        </mxCell>
        <mxCell id="t3j6wXu3w4N-dWDr2V0--92" style="edgeStyle=orthogonalEdgeStyle;rounded=0;orthogonalLoop=1;jettySize=auto;html=1;exitX=1;exitY=0.5;exitDx=0;exitDy=0;entryX=0.25;entryY=0;entryDx=0;entryDy=0;endArrow=none;endFill=0;" parent="1" source="t3j6wXu3w4N-dWDr2V0--88" target="E2j6QWugMsbap5j8bOjD-3" edge="1">
          <mxGeometry relative="1" as="geometry" />
        </mxCell>
        <mxCell id="t3j6wXu3w4N-dWDr2V0--88" value="patente" style="ellipse;whiteSpace=wrap;html=1;align=center;fontStyle=4;" parent="1" vertex="1">
          <mxGeometry x="1580" y="140" width="50" height="20" as="geometry" />
        </mxCell>
        <mxCell id="t3j6wXu3w4N-dWDr2V0--94" value="numero" style="ellipse;whiteSpace=wrap;html=1;align=center;fontStyle=4;" parent="1" vertex="1">
          <mxGeometry x="2210" y="470" width="60" height="20" as="geometry" />
        </mxCell>
        <mxCell id="t3j6wXu3w4N-dWDr2V0--95" value="fecha" style="ellipse;whiteSpace=wrap;html=1;align=center;" parent="1" vertex="1">
          <mxGeometry x="2210" y="510" width="60" height="20" as="geometry" />
        </mxCell>
        <mxCell id="t3j6wXu3w4N-dWDr2V0--98" value="descripcion" style="ellipse;whiteSpace=wrap;html=1;align=center;" parent="1" vertex="1">
          <mxGeometry x="1755" y="530" width="70" height="20" as="geometry" />
        </mxCell>
        <mxCell id="t3j6wXu3w4N-dWDr2V0--99" value="costo" style="ellipse;whiteSpace=wrap;html=1;align=center;" parent="1" vertex="1">
          <mxGeometry x="1830" y="530" width="40" height="20" as="geometry" />
        </mxCell>
        <mxCell id="t3j6wXu3w4N-dWDr2V0--103" value="antigüedad" style="ellipse;whiteSpace=wrap;html=1;align=center;" parent="1" vertex="1">
          <mxGeometry x="1520" y="420" width="70" height="20" as="geometry" />
        </mxCell>
        <mxCell id="t3j6wXu3w4N-dWDr2V0--105" value="CUIL" style="ellipse;whiteSpace=wrap;html=1;align=center;fontStyle=4;" parent="1" vertex="1">
          <mxGeometry x="1365" y="660" width="50" height="20" as="geometry" />
        </mxCell>
        <mxCell id="t3j6wXu3w4N-dWDr2V0--111" value="sueldo" style="ellipse;whiteSpace=wrap;html=1;align=center;" parent="1" vertex="1">
          <mxGeometry x="1520" y="460" width="60" height="20" as="geometry" />
        </mxCell>
        <mxCell id="t3j6wXu3w4N-dWDr2V0--117" style="edgeStyle=orthogonalEdgeStyle;rounded=0;orthogonalLoop=1;jettySize=auto;html=1;exitX=0.5;exitY=0;exitDx=0;exitDy=0;entryX=0.25;entryY=1;entryDx=0;entryDy=0;endArrow=none;endFill=0;" parent="1" source="t3j6wXu3w4N-dWDr2V0--113" target="E2j6QWugMsbap5j8bOjD-14" edge="1">
          <mxGeometry relative="1" as="geometry" />
        </mxCell>
        <mxCell id="t3j6wXu3w4N-dWDr2V0--113" value="nombre" style="ellipse;whiteSpace=wrap;html=1;align=center;" parent="1" vertex="1">
          <mxGeometry x="1600" y="760" width="50" height="20" as="geometry" />
        </mxCell>
        <mxCell id="t3j6wXu3w4N-dWDr2V0--114" value="codigo" style="ellipse;whiteSpace=wrap;html=1;align=center;fontStyle=4;" parent="1" vertex="1">
          <mxGeometry x="1650" y="780" width="50" height="20" as="geometry" />
        </mxCell>
        <mxCell id="t3j6wXu3w4N-dWDr2V0--115" value="nombre" style="ellipse;whiteSpace=wrap;html=1;align=center;fontStyle=4;" parent="1" vertex="1">
          <mxGeometry x="2190" y="710" width="60" height="20" as="geometry" />
        </mxCell>
        <mxCell id="t3j6wXu3w4N-dWDr2V0--121" value="orientacion" style="ellipse;whiteSpace=wrap;html=1;align=center;fontStyle=4;" parent="1" vertex="1">
          <mxGeometry x="1695" y="930" width="70" height="20" as="geometry" />
        </mxCell>
        <mxCell id="t3j6wXu3w4N-dWDr2V0--126" value="Valor al que fue adquirido" style="ellipse;whiteSpace=wrap;html=1;align=center;rotation=0;" parent="1" vertex="1">
          <mxGeometry x="1130" y="300" width="150" height="20" as="geometry" />
        </mxCell>
        <mxCell id="t3j6wXu3w4N-dWDr2V0--131" style="edgeStyle=orthogonalEdgeStyle;rounded=0;orthogonalLoop=1;jettySize=auto;html=1;exitX=0.5;exitY=1;exitDx=0;exitDy=0;entryX=0.5;entryY=0;entryDx=0;entryDy=0;endArrow=none;endFill=0;" parent="1" source="t3j6wXu3w4N-dWDr2V0--129" target="E2j6QWugMsbap5j8bOjD-14" edge="1">
          <mxGeometry relative="1" as="geometry" />
        </mxCell>
        <mxCell id="t3j6wXu3w4N-dWDr2V0--129" value="Vive" style="shape=rhombus;perimeter=rhombusPerimeter;whiteSpace=wrap;html=1;align=center;fillColor=default;" parent="1" vertex="1">
          <mxGeometry x="1590" y="575" width="120" height="60" as="geometry" />
        </mxCell>
        <mxCell id="t3j6wXu3w4N-dWDr2V0--157" style="edgeStyle=orthogonalEdgeStyle;rounded=0;sketch=0;orthogonalLoop=1;jettySize=auto;html=1;exitX=0.5;exitY=1;exitDx=0;exitDy=0;startArrow=none;startFill=0;endArrow=none;endFill=0;" parent="1" source="t3j6wXu3w4N-dWDr2V0--98" target="t3j6wXu3w4N-dWDr2V0--98" edge="1">
          <mxGeometry relative="1" as="geometry" />
        </mxCell>
        <mxCell id="E_HUkGmcdNxzFi-APGPb-41" value="datos personales" style="ellipse;whiteSpace=wrap;html=1;align=center;" vertex="1" parent="1">
          <mxGeometry x="1520" y="520" width="120" height="20" as="geometry" />
        </mxCell>
        <mxCell id="E_HUkGmcdNxzFi-APGPb-48" style="edgeStyle=orthogonalEdgeStyle;rounded=0;orthogonalLoop=1;jettySize=auto;html=1;exitX=1;exitY=0.5;exitDx=0;exitDy=0;entryX=0;entryY=0.75;entryDx=0;entryDy=0;endArrow=none;endFill=0;" edge="1" parent="1" source="E_HUkGmcdNxzFi-APGPb-45" target="E2j6QWugMsbap5j8bOjD-9">
          <mxGeometry relative="1" as="geometry" />
        </mxCell>
        <mxCell id="E_HUkGmcdNxzFi-APGPb-45" value="Sucedio" style="shape=rhombus;perimeter=rhombusPerimeter;whiteSpace=wrap;html=1;align=center;fillColor=default;" vertex="1" parent="1">
          <mxGeometry x="1780" y="575" width="120" height="60" as="geometry" />
        </mxCell>
        <mxCell id="E_HUkGmcdNxzFi-APGPb-53" style="edgeStyle=orthogonalEdgeStyle;rounded=0;sketch=0;orthogonalLoop=1;jettySize=auto;html=1;exitX=1;exitY=0.5;exitDx=0;exitDy=0;entryX=0;entryY=0.5;entryDx=0;entryDy=0;startArrow=none;startFill=0;endArrow=classic;endFill=1;" edge="1" parent="1" source="E_HUkGmcdNxzFi-APGPb-58" target="E_HUkGmcdNxzFi-APGPb-67">
          <mxGeometry relative="1" as="geometry" />
        </mxCell>
        <mxCell id="E_HUkGmcdNxzFi-APGPb-54" style="edgeStyle=orthogonalEdgeStyle;rounded=0;sketch=0;orthogonalLoop=1;jettySize=auto;html=1;exitX=0.5;exitY=1;exitDx=0;exitDy=0;entryX=0.5;entryY=0;entryDx=0;entryDy=0;startArrow=none;startFill=0;endArrow=none;endFill=0;" edge="1" parent="1" source="E_HUkGmcdNxzFi-APGPb-58" target="E_HUkGmcdNxzFi-APGPb-108">
          <mxGeometry relative="1" as="geometry" />
        </mxCell>
        <mxCell id="E_HUkGmcdNxzFi-APGPb-55" style="edgeStyle=orthogonalEdgeStyle;rounded=0;sketch=0;orthogonalLoop=1;jettySize=auto;html=1;exitX=0;exitY=0.75;exitDx=0;exitDy=0;entryX=1;entryY=0.5;entryDx=0;entryDy=0;startArrow=none;startFill=0;endArrow=none;endFill=0;" edge="1" parent="1" source="E_HUkGmcdNxzFi-APGPb-58" target="E_HUkGmcdNxzFi-APGPb-136">
          <mxGeometry relative="1" as="geometry" />
        </mxCell>
        <mxCell id="E_HUkGmcdNxzFi-APGPb-56" style="edgeStyle=orthogonalEdgeStyle;rounded=0;sketch=0;orthogonalLoop=1;jettySize=auto;html=1;exitX=0;exitY=0.25;exitDx=0;exitDy=0;entryX=1;entryY=0.5;entryDx=0;entryDy=0;startArrow=none;startFill=0;endArrow=none;endFill=0;" edge="1" parent="1" source="E_HUkGmcdNxzFi-APGPb-58" target="E_HUkGmcdNxzFi-APGPb-157">
          <mxGeometry relative="1" as="geometry" />
        </mxCell>
        <mxCell id="E_HUkGmcdNxzFi-APGPb-57" style="edgeStyle=orthogonalEdgeStyle;rounded=0;sketch=0;orthogonalLoop=1;jettySize=auto;html=1;exitX=0.25;exitY=1;exitDx=0;exitDy=0;entryX=0.5;entryY=0;entryDx=0;entryDy=0;startArrow=classic;startFill=1;endArrow=none;endFill=0;" edge="1" parent="1" source="E_HUkGmcdNxzFi-APGPb-58" target="E_HUkGmcdNxzFi-APGPb-111">
          <mxGeometry relative="1" as="geometry">
            <Array as="points">
              <mxPoint x="1312.5" y="1450" />
              <mxPoint x="1177.5" y="1450" />
            </Array>
          </mxGeometry>
        </mxCell>
        <mxCell id="E_HUkGmcdNxzFi-APGPb-58" value="Camion de la empresa" style="rounded=0;whiteSpace=wrap;html=1;" vertex="1" parent="1">
          <mxGeometry x="1277.5" y="1365" width="140" height="60" as="geometry" />
        </mxCell>
        <mxCell id="E_HUkGmcdNxzFi-APGPb-59" style="edgeStyle=none;html=1;exitX=1;exitY=0.5;exitDx=0;exitDy=0;entryX=0;entryY=0.5;entryDx=0;entryDy=0;startArrow=classic;startFill=1;endArrow=none;endFill=0;rounded=0;" edge="1" parent="1" source="E_HUkGmcdNxzFi-APGPb-64" target="E_HUkGmcdNxzFi-APGPb-98">
          <mxGeometry relative="1" as="geometry" />
        </mxCell>
        <mxCell id="E_HUkGmcdNxzFi-APGPb-60" style="edgeStyle=orthogonalEdgeStyle;rounded=0;sketch=0;orthogonalLoop=1;jettySize=auto;html=1;exitX=1;exitY=0.25;exitDx=0;exitDy=0;entryX=0;entryY=0.5;entryDx=0;entryDy=0;startArrow=none;startFill=0;endArrow=none;endFill=0;" edge="1" parent="1" source="E_HUkGmcdNxzFi-APGPb-64" target="E_HUkGmcdNxzFi-APGPb-151">
          <mxGeometry relative="1" as="geometry" />
        </mxCell>
        <mxCell id="E_HUkGmcdNxzFi-APGPb-61" style="edgeStyle=orthogonalEdgeStyle;rounded=0;sketch=0;orthogonalLoop=1;jettySize=auto;html=1;exitX=0.5;exitY=1;exitDx=0;exitDy=0;entryX=0.5;entryY=0;entryDx=0;entryDy=0;startArrow=none;startFill=0;endArrow=classic;endFill=1;" edge="1" parent="1" source="E_HUkGmcdNxzFi-APGPb-64" target="E_HUkGmcdNxzFi-APGPb-80">
          <mxGeometry relative="1" as="geometry" />
        </mxCell>
        <mxCell id="E_HUkGmcdNxzFi-APGPb-63" style="edgeStyle=orthogonalEdgeStyle;rounded=0;orthogonalLoop=1;jettySize=auto;html=1;exitX=0.75;exitY=0;exitDx=0;exitDy=0;entryX=0;entryY=0.5;entryDx=0;entryDy=0;endArrow=none;endFill=0;" edge="1" parent="1" source="E_HUkGmcdNxzFi-APGPb-64" target="E_HUkGmcdNxzFi-APGPb-149">
          <mxGeometry relative="1" as="geometry" />
        </mxCell>
        <mxCell id="E_HUkGmcdNxzFi-APGPb-64" value="Chofer" style="rounded=0;whiteSpace=wrap;html=1;" vertex="1" parent="1">
          <mxGeometry x="1277.5" y="1540" width="140" height="60" as="geometry" />
        </mxCell>
        <mxCell id="E_HUkGmcdNxzFi-APGPb-65" value="Vehiculo" style="rounded=0;whiteSpace=wrap;html=1;" vertex="1" parent="1">
          <mxGeometry x="1637.5" y="1250" width="140" height="60" as="geometry" />
        </mxCell>
        <mxCell id="E_HUkGmcdNxzFi-APGPb-66" style="edgeStyle=orthogonalEdgeStyle;rounded=0;orthogonalLoop=1;jettySize=auto;html=1;exitX=0.5;exitY=0;exitDx=0;exitDy=0;entryX=0.5;entryY=1;entryDx=0;entryDy=0;startArrow=none;startFill=0;endArrow=none;endFill=0;" edge="1" parent="1" source="E_HUkGmcdNxzFi-APGPb-67" target="E_HUkGmcdNxzFi-APGPb-65">
          <mxGeometry relative="1" as="geometry" />
        </mxCell>
        <mxCell id="E_HUkGmcdNxzFi-APGPb-67" value="Camion" style="rounded=0;whiteSpace=wrap;html=1;" vertex="1" parent="1">
          <mxGeometry x="1577.5" y="1380" width="80" height="30" as="geometry" />
        </mxCell>
        <mxCell id="E_HUkGmcdNxzFi-APGPb-68" style="edgeStyle=orthogonalEdgeStyle;rounded=0;orthogonalLoop=1;jettySize=auto;html=1;exitX=0.5;exitY=0;exitDx=0;exitDy=0;entryX=0.5;entryY=1;entryDx=0;entryDy=0;startArrow=none;startFill=0;endArrow=none;endFill=0;" edge="1" parent="1" source="E_HUkGmcdNxzFi-APGPb-69" target="E_HUkGmcdNxzFi-APGPb-65">
          <mxGeometry relative="1" as="geometry" />
        </mxCell>
        <mxCell id="E_HUkGmcdNxzFi-APGPb-69" value="Auto" style="rounded=0;whiteSpace=wrap;html=1;" vertex="1" parent="1">
          <mxGeometry x="1667.5" y="1380" width="80" height="30" as="geometry" />
        </mxCell>
        <mxCell id="E_HUkGmcdNxzFi-APGPb-70" style="edgeStyle=orthogonalEdgeStyle;rounded=0;orthogonalLoop=1;jettySize=auto;html=1;exitX=0.5;exitY=0;exitDx=0;exitDy=0;entryX=0.5;entryY=1;entryDx=0;entryDy=0;startArrow=none;startFill=0;endArrow=classic;endFill=0;" edge="1" parent="1" source="E_HUkGmcdNxzFi-APGPb-71" target="E_HUkGmcdNxzFi-APGPb-65">
          <mxGeometry relative="1" as="geometry" />
        </mxCell>
        <mxCell id="E_HUkGmcdNxzFi-APGPb-71" value="Moto" style="rounded=0;whiteSpace=wrap;html=1;" vertex="1" parent="1">
          <mxGeometry x="1757.5" y="1380" width="80" height="30" as="geometry" />
        </mxCell>
        <mxCell id="E_HUkGmcdNxzFi-APGPb-72" style="edgeStyle=orthogonalEdgeStyle;shape=link;rounded=0;orthogonalLoop=1;jettySize=auto;html=1;exitX=0.5;exitY=1;exitDx=0;exitDy=0;startArrow=none;startFill=0;endArrow=none;endFill=0;" edge="1" parent="1" source="E_HUkGmcdNxzFi-APGPb-75" target="E_HUkGmcdNxzFi-APGPb-77">
          <mxGeometry relative="1" as="geometry" />
        </mxCell>
        <mxCell id="E_HUkGmcdNxzFi-APGPb-73" style="edgeStyle=orthogonalEdgeStyle;rounded=0;orthogonalLoop=1;jettySize=auto;html=1;exitX=1;exitY=0.25;exitDx=0;exitDy=0;entryX=0;entryY=0.5;entryDx=0;entryDy=0;endArrow=none;endFill=0;" edge="1" parent="1" source="E_HUkGmcdNxzFi-APGPb-75" target="E_HUkGmcdNxzFi-APGPb-145">
          <mxGeometry relative="1" as="geometry" />
        </mxCell>
        <mxCell id="E_HUkGmcdNxzFi-APGPb-74" style="edgeStyle=orthogonalEdgeStyle;rounded=0;orthogonalLoop=1;jettySize=auto;html=1;exitX=1;exitY=0.75;exitDx=0;exitDy=0;entryX=0;entryY=0.5;entryDx=0;entryDy=0;endArrow=none;endFill=0;" edge="1" parent="1" source="E_HUkGmcdNxzFi-APGPb-75" target="E_HUkGmcdNxzFi-APGPb-146">
          <mxGeometry relative="1" as="geometry" />
        </mxCell>
        <mxCell id="E_HUkGmcdNxzFi-APGPb-75" value="Choque" style="shape=ext;margin=3;double=1;whiteSpace=wrap;html=1;align=center;rounded=0;" vertex="1" parent="1">
          <mxGeometry x="1967.5" y="1540" width="140" height="60" as="geometry" />
        </mxCell>
        <mxCell id="E_HUkGmcdNxzFi-APGPb-76" style="edgeStyle=none;html=1;exitX=0.5;exitY=1;exitDx=0;exitDy=0;entryX=0.5;entryY=0;entryDx=0;entryDy=0;startArrow=none;startFill=0;endArrow=classic;endFill=1;rounded=0;" edge="1" parent="1" source="E_HUkGmcdNxzFi-APGPb-77" target="E_HUkGmcdNxzFi-APGPb-88">
          <mxGeometry relative="1" as="geometry" />
        </mxCell>
        <mxCell id="E_HUkGmcdNxzFi-APGPb-77" value="Sucedio" style="shape=rhombus;double=1;perimeter=rhombusPerimeter;whiteSpace=wrap;html=1;align=center;rounded=0;" vertex="1" parent="1">
          <mxGeometry x="1997.5" y="1650" width="80" height="50" as="geometry" />
        </mxCell>
        <mxCell id="E_HUkGmcdNxzFi-APGPb-78" style="edgeStyle=orthogonalEdgeStyle;rounded=0;sketch=0;orthogonalLoop=1;jettySize=auto;html=1;exitX=1;exitY=0.5;exitDx=0;exitDy=0;entryX=0;entryY=0.5;entryDx=0;entryDy=0;startArrow=none;startFill=0;endArrow=none;endFill=0;" edge="1" parent="1" source="E_HUkGmcdNxzFi-APGPb-80" target="E_HUkGmcdNxzFi-APGPb-159">
          <mxGeometry relative="1" as="geometry" />
        </mxCell>
        <mxCell id="E_HUkGmcdNxzFi-APGPb-175" style="edgeStyle=orthogonalEdgeStyle;rounded=0;orthogonalLoop=1;jettySize=auto;html=1;exitX=0.75;exitY=0;exitDx=0;exitDy=0;entryX=0;entryY=0.5;entryDx=0;entryDy=0;endArrow=none;endFill=0;" edge="1" parent="1" source="E_HUkGmcdNxzFi-APGPb-80" target="E_HUkGmcdNxzFi-APGPb-161">
          <mxGeometry relative="1" as="geometry" />
        </mxCell>
        <mxCell id="E_HUkGmcdNxzFi-APGPb-176" style="edgeStyle=orthogonalEdgeStyle;rounded=0;orthogonalLoop=1;jettySize=auto;html=1;exitX=1;exitY=0.25;exitDx=0;exitDy=0;entryX=0;entryY=0.5;entryDx=0;entryDy=0;endArrow=none;endFill=0;" edge="1" parent="1" source="E_HUkGmcdNxzFi-APGPb-80" target="E_HUkGmcdNxzFi-APGPb-150">
          <mxGeometry relative="1" as="geometry" />
        </mxCell>
        <mxCell id="E_HUkGmcdNxzFi-APGPb-178" style="edgeStyle=orthogonalEdgeStyle;rounded=0;orthogonalLoop=1;jettySize=auto;html=1;exitX=0.5;exitY=1;exitDx=0;exitDy=0;entryX=0.5;entryY=0;entryDx=0;entryDy=0;endArrow=none;endFill=0;startArrow=classic;startFill=1;" edge="1" parent="1" source="E_HUkGmcdNxzFi-APGPb-80" target="E_HUkGmcdNxzFi-APGPb-177">
          <mxGeometry relative="1" as="geometry" />
        </mxCell>
        <mxCell id="E_HUkGmcdNxzFi-APGPb-80" value="Persona" style="whiteSpace=wrap;html=1;align=center;rounded=0;" vertex="1" parent="1">
          <mxGeometry x="1277.5" y="1920" width="140" height="60" as="geometry" />
        </mxCell>
        <mxCell id="E_HUkGmcdNxzFi-APGPb-81" style="edgeStyle=orthogonalEdgeStyle;rounded=0;orthogonalLoop=1;jettySize=auto;html=1;exitX=1;exitY=0.75;exitDx=0;exitDy=0;entryX=0;entryY=0.5;entryDx=0;entryDy=0;strokeWidth=0.5;startArrow=none;startFill=0;endArrow=none;endFill=0;" edge="1" parent="1" source="E_HUkGmcdNxzFi-APGPb-84" target="E_HUkGmcdNxzFi-APGPb-117">
          <mxGeometry relative="1" as="geometry" />
        </mxCell>
        <mxCell id="E_HUkGmcdNxzFi-APGPb-82" style="edgeStyle=none;html=1;exitX=0.5;exitY=1;exitDx=0;exitDy=0;entryX=0.5;entryY=0;entryDx=0;entryDy=0;endArrow=none;endFill=0;startArrow=classic;startFill=1;rounded=0;" edge="1" parent="1" source="E_HUkGmcdNxzFi-APGPb-84" target="E_HUkGmcdNxzFi-APGPb-89">
          <mxGeometry relative="1" as="geometry" />
        </mxCell>
        <mxCell id="E_HUkGmcdNxzFi-APGPb-168" style="edgeStyle=orthogonalEdgeStyle;rounded=0;orthogonalLoop=1;jettySize=auto;html=1;exitX=0.75;exitY=0;exitDx=0;exitDy=0;entryX=0;entryY=0.5;entryDx=0;entryDy=0;endArrow=none;endFill=0;" edge="1" parent="1" source="E_HUkGmcdNxzFi-APGPb-84" target="E_HUkGmcdNxzFi-APGPb-163">
          <mxGeometry relative="1" as="geometry" />
        </mxCell>
        <mxCell id="E_HUkGmcdNxzFi-APGPb-84" value="Viaje" style="whiteSpace=wrap;html=1;align=center;rounded=0;" vertex="1" parent="1">
          <mxGeometry x="1107.5" y="1745" width="140" height="60" as="geometry" />
        </mxCell>
        <mxCell id="E_HUkGmcdNxzFi-APGPb-85" style="edgeStyle=orthogonalEdgeStyle;rounded=0;orthogonalLoop=1;jettySize=auto;html=1;exitX=1;exitY=0.5;exitDx=0;exitDy=0;entryX=0;entryY=0.5;entryDx=0;entryDy=0;strokeWidth=0.5;startArrow=none;startFill=0;endArrow=none;endFill=0;" edge="1" parent="1" source="E_HUkGmcdNxzFi-APGPb-102" target="E_HUkGmcdNxzFi-APGPb-115">
          <mxGeometry relative="1" as="geometry" />
        </mxCell>
        <mxCell id="E_HUkGmcdNxzFi-APGPb-86" style="edgeStyle=none;html=1;exitX=1;exitY=0.5;exitDx=0;exitDy=0;entryX=0;entryY=0.5;entryDx=0;entryDy=0;startArrow=none;startFill=0;endArrow=none;endFill=0;rounded=0;" edge="1" parent="1" source="E_HUkGmcdNxzFi-APGPb-98" target="E_HUkGmcdNxzFi-APGPb-75">
          <mxGeometry relative="1" as="geometry" />
        </mxCell>
        <mxCell id="E_HUkGmcdNxzFi-APGPb-87" style="edgeStyle=orthogonalEdgeStyle;rounded=0;orthogonalLoop=1;jettySize=auto;html=1;exitX=1;exitY=0.5;exitDx=0;exitDy=0;entryX=0;entryY=0.5;entryDx=0;entryDy=0;endArrow=none;endFill=0;" edge="1" parent="1" source="E_HUkGmcdNxzFi-APGPb-88" target="E_HUkGmcdNxzFi-APGPb-155">
          <mxGeometry relative="1" as="geometry" />
        </mxCell>
        <mxCell id="E_HUkGmcdNxzFi-APGPb-88" value="Provincia" style="whiteSpace=wrap;html=1;align=center;rounded=0;" vertex="1" parent="1">
          <mxGeometry x="1967.5" y="1760" width="140" height="60" as="geometry" />
        </mxCell>
        <mxCell id="E_HUkGmcdNxzFi-APGPb-89" value="Entregó" style="shape=rhombus;perimeter=rhombusPerimeter;whiteSpace=wrap;html=1;align=center;rounded=0;" vertex="1" parent="1">
          <mxGeometry x="1120" y="1960" width="120" height="60" as="geometry" />
        </mxCell>
        <mxCell id="E_HUkGmcdNxzFi-APGPb-91" style="edgeStyle=orthogonalEdgeStyle;rounded=0;orthogonalLoop=1;jettySize=auto;html=1;exitX=0;exitY=0.5;exitDx=0;exitDy=0;entryX=1;entryY=0.5;entryDx=0;entryDy=0;endArrow=none;endFill=0;" edge="1" parent="1" source="E_HUkGmcdNxzFi-APGPb-92" target="E_HUkGmcdNxzFi-APGPb-127">
          <mxGeometry relative="1" as="geometry" />
        </mxCell>
        <mxCell id="E_HUkGmcdNxzFi-APGPb-167" style="edgeStyle=orthogonalEdgeStyle;rounded=0;orthogonalLoop=1;jettySize=auto;html=1;exitX=0.25;exitY=1;exitDx=0;exitDy=0;entryX=1;entryY=0.5;entryDx=0;entryDy=0;endArrow=none;endFill=0;" edge="1" parent="1" source="E_HUkGmcdNxzFi-APGPb-92" target="E_HUkGmcdNxzFi-APGPb-164">
          <mxGeometry relative="1" as="geometry" />
        </mxCell>
        <mxCell id="E_HUkGmcdNxzFi-APGPb-179" style="edgeStyle=orthogonalEdgeStyle;rounded=0;orthogonalLoop=1;jettySize=auto;html=1;exitX=0.75;exitY=0;exitDx=0;exitDy=0;entryX=0.5;entryY=1;entryDx=0;entryDy=0;endArrow=none;endFill=0;" edge="1" parent="1" source="E_HUkGmcdNxzFi-APGPb-92" target="E_HUkGmcdNxzFi-APGPb-177">
          <mxGeometry relative="1" as="geometry" />
        </mxCell>
        <mxCell id="E_HUkGmcdNxzFi-APGPb-92" value="Paquete" style="whiteSpace=wrap;html=1;align=center;rounded=0;" vertex="1" parent="1">
          <mxGeometry x="1110" y="2170" width="140" height="80" as="geometry" />
        </mxCell>
        <mxCell id="E_HUkGmcdNxzFi-APGPb-93" value="Destino" style="shape=rhombus;perimeter=rhombusPerimeter;whiteSpace=wrap;html=1;align=center;rounded=0;" vertex="1" parent="1">
          <mxGeometry x="1330" y="2180" width="120" height="60" as="geometry" />
        </mxCell>
        <mxCell id="E_HUkGmcdNxzFi-APGPb-94" style="edgeStyle=none;html=1;exitX=0;exitY=0.5;exitDx=0;exitDy=0;entryX=1;entryY=0.5;entryDx=0;entryDy=0;startArrow=none;startFill=0;endArrow=none;endFill=0;rounded=0;" edge="1" parent="1" source="E_HUkGmcdNxzFi-APGPb-100" target="E_HUkGmcdNxzFi-APGPb-65">
          <mxGeometry relative="1" as="geometry" />
        </mxCell>
        <mxCell id="E_HUkGmcdNxzFi-APGPb-95" style="edgeStyle=orthogonalEdgeStyle;rounded=0;sketch=0;orthogonalLoop=1;jettySize=auto;html=1;exitX=0;exitY=1;exitDx=0;exitDy=0;entryX=0.5;entryY=0;entryDx=0;entryDy=0;startArrow=none;startFill=0;endArrow=none;endFill=0;" edge="1" parent="1" source="E_HUkGmcdNxzFi-APGPb-98" target="E_HUkGmcdNxzFi-APGPb-147">
          <mxGeometry relative="1" as="geometry" />
        </mxCell>
        <mxCell id="E_HUkGmcdNxzFi-APGPb-96" style="edgeStyle=orthogonalEdgeStyle;rounded=0;sketch=0;orthogonalLoop=1;jettySize=auto;html=1;exitX=1;exitY=1;exitDx=0;exitDy=0;entryX=0.5;entryY=0;entryDx=0;entryDy=0;startArrow=none;startFill=0;endArrow=none;endFill=0;" edge="1" parent="1" source="E_HUkGmcdNxzFi-APGPb-98" target="E_HUkGmcdNxzFi-APGPb-148">
          <mxGeometry relative="1" as="geometry" />
        </mxCell>
        <mxCell id="E_HUkGmcdNxzFi-APGPb-97" style="edgeStyle=orthogonalEdgeStyle;rounded=0;sketch=0;orthogonalLoop=1;jettySize=auto;html=1;exitX=0.5;exitY=0;exitDx=0;exitDy=0;entryX=0.75;entryY=1;entryDx=0;entryDy=0;startArrow=none;startFill=0;endArrow=classic;endFill=1;" edge="1" parent="1" source="E_HUkGmcdNxzFi-APGPb-98" target="E_HUkGmcdNxzFi-APGPb-58">
          <mxGeometry relative="1" as="geometry">
            <Array as="points">
              <mxPoint x="1777.5" y="1450" />
              <mxPoint x="1382.5" y="1450" />
            </Array>
          </mxGeometry>
        </mxCell>
        <mxCell id="E_HUkGmcdNxzFi-APGPb-98" value="Participó" style="shape=rhombus;perimeter=rhombusPerimeter;whiteSpace=wrap;html=1;align=center;rounded=0;" vertex="1" parent="1">
          <mxGeometry x="1717.5" y="1540" width="120" height="60" as="geometry" />
        </mxCell>
        <mxCell id="E_HUkGmcdNxzFi-APGPb-99" style="edgeStyle=orthogonalEdgeStyle;rounded=0;sketch=0;orthogonalLoop=1;jettySize=auto;html=1;exitX=0.5;exitY=1;exitDx=0;exitDy=0;entryX=0.5;entryY=0;entryDx=0;entryDy=0;startArrow=none;startFill=0;endArrow=none;endFill=0;" edge="1" parent="1" source="E_HUkGmcdNxzFi-APGPb-100" target="E_HUkGmcdNxzFi-APGPb-75">
          <mxGeometry relative="1" as="geometry" />
        </mxCell>
        <mxCell id="E_HUkGmcdNxzFi-APGPb-100" value="Participo en" style="shape=rhombus;perimeter=rhombusPerimeter;whiteSpace=wrap;html=1;align=center;rounded=0;" vertex="1" parent="1">
          <mxGeometry x="1977.5" y="1250" width="120" height="60" as="geometry" />
        </mxCell>
        <mxCell id="E_HUkGmcdNxzFi-APGPb-102" value="Localidad" style="whiteSpace=wrap;html=1;align=center;rounded=0;" vertex="1" parent="1">
          <mxGeometry x="1557.5" y="1760" width="100" height="60" as="geometry" />
        </mxCell>
        <mxCell id="E_HUkGmcdNxzFi-APGPb-103" style="edgeStyle=orthogonalEdgeStyle;rounded=0;orthogonalLoop=1;jettySize=auto;html=1;exitX=1;exitY=0.5;exitDx=0;exitDy=0;entryX=0;entryY=0.5;entryDx=0;entryDy=0;endArrow=none;endFill=0;" edge="1" parent="1" source="E_HUkGmcdNxzFi-APGPb-106" target="E_HUkGmcdNxzFi-APGPb-156">
          <mxGeometry relative="1" as="geometry">
            <mxPoint x="1670" y="2210" as="targetPoint" />
          </mxGeometry>
        </mxCell>
        <mxCell id="E_HUkGmcdNxzFi-APGPb-104" style="edgeStyle=orthogonalEdgeStyle;rounded=0;orthogonalLoop=1;jettySize=auto;html=1;exitX=1;exitY=0.25;exitDx=0;exitDy=0;entryX=0;entryY=0.5;entryDx=0;entryDy=0;endArrow=none;endFill=0;" edge="1" parent="1" source="E_HUkGmcdNxzFi-APGPb-106" target="E_HUkGmcdNxzFi-APGPb-119">
          <mxGeometry relative="1" as="geometry" />
        </mxCell>
        <mxCell id="E_HUkGmcdNxzFi-APGPb-105" style="edgeStyle=orthogonalEdgeStyle;rounded=0;orthogonalLoop=1;jettySize=auto;html=1;exitX=1;exitY=0.75;exitDx=0;exitDy=0;entryX=0;entryY=0.5;entryDx=0;entryDy=0;endArrow=none;endFill=0;" edge="1" parent="1" source="E_HUkGmcdNxzFi-APGPb-106" target="E_HUkGmcdNxzFi-APGPb-120">
          <mxGeometry relative="1" as="geometry" />
        </mxCell>
        <mxCell id="E_HUkGmcdNxzFi-APGPb-106" value="Direccion" style="whiteSpace=wrap;html=1;align=center;rounded=0;" vertex="1" parent="1">
          <mxGeometry x="1530" y="2190" width="100" height="40" as="geometry" />
        </mxCell>
        <mxCell id="E_HUkGmcdNxzFi-APGPb-107" style="edgeStyle=orthogonalEdgeStyle;rounded=0;sketch=0;orthogonalLoop=1;jettySize=auto;html=1;exitX=0.5;exitY=1;exitDx=0;exitDy=0;entryX=0.5;entryY=0;entryDx=0;entryDy=0;startArrow=none;startFill=0;endArrow=none;endFill=0;" edge="1" parent="1" source="E_HUkGmcdNxzFi-APGPb-108" target="E_HUkGmcdNxzFi-APGPb-64">
          <mxGeometry relative="1" as="geometry" />
        </mxCell>
        <mxCell id="E_HUkGmcdNxzFi-APGPb-108" value="Conduce" style="shape=rhombus;perimeter=rhombusPerimeter;whiteSpace=wrap;html=1;align=center;rounded=0;" vertex="1" parent="1">
          <mxGeometry x="1287.5" y="1450" width="120" height="60" as="geometry" />
        </mxCell>
        <mxCell id="E_HUkGmcdNxzFi-APGPb-109" style="edgeStyle=orthogonalEdgeStyle;rounded=0;orthogonalLoop=1;jettySize=auto;html=1;exitX=0.5;exitY=1;exitDx=0;exitDy=0;entryX=0.5;entryY=0;entryDx=0;entryDy=0;endArrow=none;endFill=0;" edge="1" parent="1" source="E_HUkGmcdNxzFi-APGPb-111" target="E_HUkGmcdNxzFi-APGPb-84">
          <mxGeometry relative="1" as="geometry" />
        </mxCell>
        <mxCell id="E_HUkGmcdNxzFi-APGPb-110" style="edgeStyle=orthogonalEdgeStyle;rounded=0;sketch=0;orthogonalLoop=1;jettySize=auto;html=1;exitX=1;exitY=0.5;exitDx=0;exitDy=0;entryX=0;entryY=0.5;entryDx=0;entryDy=0;startArrow=none;startFill=0;endArrow=classic;endFill=1;" edge="1" parent="1" source="E_HUkGmcdNxzFi-APGPb-111" target="E_HUkGmcdNxzFi-APGPb-64">
          <mxGeometry relative="1" as="geometry" />
        </mxCell>
        <mxCell id="E_HUkGmcdNxzFi-APGPb-111" value="Realizo" style="shape=rhombus;perimeter=rhombusPerimeter;whiteSpace=wrap;html=1;align=center;rounded=0;" vertex="1" parent="1">
          <mxGeometry x="1117.5" y="1545" width="120" height="50" as="geometry" />
        </mxCell>
        <mxCell id="E_HUkGmcdNxzFi-APGPb-112" style="edgeStyle=none;html=1;exitX=1;exitY=0.5;exitDx=0;exitDy=0;entryX=0;entryY=0.5;entryDx=0;entryDy=0;endArrow=none;endFill=0;rounded=0;" edge="1" parent="1" source="E_HUkGmcdNxzFi-APGPb-92" target="E_HUkGmcdNxzFi-APGPb-93">
          <mxGeometry relative="1" as="geometry" />
        </mxCell>
        <mxCell id="E_HUkGmcdNxzFi-APGPb-113" style="edgeStyle=none;html=1;exitX=1;exitY=0.5;exitDx=0;exitDy=0;entryX=0;entryY=0.5;entryDx=0;entryDy=0;rounded=0;" edge="1" parent="1" source="E_HUkGmcdNxzFi-APGPb-93" target="E_HUkGmcdNxzFi-APGPb-106">
          <mxGeometry relative="1" as="geometry" />
        </mxCell>
        <mxCell id="E_HUkGmcdNxzFi-APGPb-114" style="edgeStyle=orthogonalEdgeStyle;rounded=0;orthogonalLoop=1;jettySize=auto;html=1;exitX=1;exitY=0.5;exitDx=0;exitDy=0;entryX=0;entryY=0.5;entryDx=0;entryDy=0;strokeWidth=0.5;startArrow=none;startFill=0;endArrow=classic;endFill=1;" edge="1" parent="1" source="E_HUkGmcdNxzFi-APGPb-115" target="E_HUkGmcdNxzFi-APGPb-88">
          <mxGeometry relative="1" as="geometry" />
        </mxCell>
        <mxCell id="E_HUkGmcdNxzFi-APGPb-115" value="Esta en" style="shape=rhombus;perimeter=rhombusPerimeter;whiteSpace=wrap;html=1;align=center;rounded=0;" vertex="1" parent="1">
          <mxGeometry x="1757.5" y="1760" width="120" height="60" as="geometry" />
        </mxCell>
        <mxCell id="E_HUkGmcdNxzFi-APGPb-116" style="edgeStyle=orthogonalEdgeStyle;rounded=0;orthogonalLoop=1;jettySize=auto;html=1;exitX=1;exitY=0.5;exitDx=0;exitDy=0;entryX=0;entryY=0.5;entryDx=0;entryDy=0;strokeWidth=0.5;startArrow=none;startFill=0;endArrow=none;endFill=0;" edge="1" parent="1" source="E_HUkGmcdNxzFi-APGPb-117" target="E_HUkGmcdNxzFi-APGPb-102">
          <mxGeometry relative="1" as="geometry" />
        </mxCell>
        <mxCell id="E_HUkGmcdNxzFi-APGPb-117" value="Recorrio" style="shape=rhombus;perimeter=rhombusPerimeter;whiteSpace=wrap;html=1;align=center;rounded=0;" vertex="1" parent="1">
          <mxGeometry x="1357.5" y="1760" width="120" height="60" as="geometry" />
        </mxCell>
        <mxCell id="E_HUkGmcdNxzFi-APGPb-118" style="edgeStyle=none;html=1;exitX=0.5;exitY=1;exitDx=0;exitDy=0;entryX=0.5;entryY=0;entryDx=0;entryDy=0;endArrow=none;endFill=0;rounded=0;" edge="1" parent="1" source="E_HUkGmcdNxzFi-APGPb-89" target="E_HUkGmcdNxzFi-APGPb-92">
          <mxGeometry relative="1" as="geometry" />
        </mxCell>
        <mxCell id="E_HUkGmcdNxzFi-APGPb-119" value="calle" style="ellipse;whiteSpace=wrap;html=1;align=center;fontStyle=4;" vertex="1" parent="1">
          <mxGeometry x="1675" y="2170" width="50" height="20" as="geometry" />
        </mxCell>
        <mxCell id="E_HUkGmcdNxzFi-APGPb-120" value="numero" style="ellipse;whiteSpace=wrap;html=1;align=center;fontStyle=4;" vertex="1" parent="1">
          <mxGeometry x="1670" y="2230" width="60" height="20" as="geometry" />
        </mxCell>
        <mxCell id="E_HUkGmcdNxzFi-APGPb-180" style="edgeStyle=orthogonalEdgeStyle;rounded=0;orthogonalLoop=1;jettySize=auto;html=1;exitX=1;exitY=0.5;exitDx=0;exitDy=0;entryX=0;entryY=0.25;entryDx=0;entryDy=0;endArrow=none;endFill=0;" edge="1" parent="1" source="E_HUkGmcdNxzFi-APGPb-122" target="E_HUkGmcdNxzFi-APGPb-92">
          <mxGeometry relative="1" as="geometry" />
        </mxCell>
        <mxCell id="E_HUkGmcdNxzFi-APGPb-122" value="DNI destinatario" style="ellipse;whiteSpace=wrap;html=1;align=center;" vertex="1" parent="1">
          <mxGeometry x="967.5" y="2170" width="100" height="20" as="geometry" />
        </mxCell>
        <mxCell id="E_HUkGmcdNxzFi-APGPb-125" style="edgeStyle=orthogonalEdgeStyle;rounded=0;orthogonalLoop=1;jettySize=auto;html=1;exitX=1;exitY=0.5;exitDx=0;exitDy=0;entryX=0;entryY=0.75;entryDx=0;entryDy=0;endArrow=none;endFill=0;" edge="1" parent="1" source="E_HUkGmcdNxzFi-APGPb-126" target="E_HUkGmcdNxzFi-APGPb-92">
          <mxGeometry relative="1" as="geometry" />
        </mxCell>
        <mxCell id="E_HUkGmcdNxzFi-APGPb-126" value="valor asegurado" style="ellipse;whiteSpace=wrap;html=1;align=center;" vertex="1" parent="1">
          <mxGeometry x="970" y="2230" width="100" height="20" as="geometry" />
        </mxCell>
        <mxCell id="E_HUkGmcdNxzFi-APGPb-127" value="precio traslado" style="ellipse;whiteSpace=wrap;html=1;align=center;" vertex="1" parent="1">
          <mxGeometry x="970" y="2200" width="100" height="20" as="geometry" />
        </mxCell>
        <mxCell id="E_HUkGmcdNxzFi-APGPb-128" style="edgeStyle=orthogonalEdgeStyle;rounded=0;orthogonalLoop=1;jettySize=auto;html=1;exitX=1;exitY=0.5;exitDx=0;exitDy=0;entryX=0;entryY=0.25;entryDx=0;entryDy=0;endArrow=none;endFill=0;" edge="1" parent="1" source="E_HUkGmcdNxzFi-APGPb-129" target="E_HUkGmcdNxzFi-APGPb-84">
          <mxGeometry relative="1" as="geometry">
            <Array as="points">
              <mxPoint x="1067.5" y="1745" />
              <mxPoint x="1067.5" y="1760" />
            </Array>
          </mxGeometry>
        </mxCell>
        <mxCell id="E_HUkGmcdNxzFi-APGPb-129" value="Kilometros" style="ellipse;whiteSpace=wrap;html=1;align=center;" vertex="1" parent="1">
          <mxGeometry x="962.5" y="1737.5" width="70" height="15" as="geometry" />
        </mxCell>
        <mxCell id="E_HUkGmcdNxzFi-APGPb-130" style="edgeStyle=orthogonalEdgeStyle;rounded=0;orthogonalLoop=1;jettySize=auto;html=1;exitX=1;exitY=0.5;exitDx=0;exitDy=0;entryX=0;entryY=0.5;entryDx=0;entryDy=0;endArrow=none;endFill=0;" edge="1" parent="1" source="E_HUkGmcdNxzFi-APGPb-131" target="E_HUkGmcdNxzFi-APGPb-84">
          <mxGeometry relative="1" as="geometry" />
        </mxCell>
        <mxCell id="E_HUkGmcdNxzFi-APGPb-131" value="Fecha salida" style="ellipse;whiteSpace=wrap;html=1;align=center;" vertex="1" parent="1">
          <mxGeometry x="957.5" y="1765" width="80" height="20" as="geometry" />
        </mxCell>
        <mxCell id="E_HUkGmcdNxzFi-APGPb-132" style="edgeStyle=orthogonalEdgeStyle;rounded=0;orthogonalLoop=1;jettySize=auto;html=1;exitX=1;exitY=0.5;exitDx=0;exitDy=0;entryX=0;entryY=0.75;entryDx=0;entryDy=0;endArrow=none;endFill=0;" edge="1" parent="1" source="E_HUkGmcdNxzFi-APGPb-133" target="E_HUkGmcdNxzFi-APGPb-84">
          <mxGeometry relative="1" as="geometry">
            <Array as="points">
              <mxPoint x="1067.5" y="1809" />
              <mxPoint x="1067.5" y="1790" />
            </Array>
          </mxGeometry>
        </mxCell>
        <mxCell id="E_HUkGmcdNxzFi-APGPb-133" value="Fecha entrada" style="ellipse;whiteSpace=wrap;html=1;align=center;" vertex="1" parent="1">
          <mxGeometry x="950" y="1797.5" width="95" height="22.5" as="geometry" />
        </mxCell>
        <mxCell id="E_HUkGmcdNxzFi-APGPb-134" style="edgeStyle=orthogonalEdgeStyle;rounded=0;orthogonalLoop=1;jettySize=auto;html=1;exitX=1;exitY=0.5;exitDx=0;exitDy=0;entryX=0.25;entryY=0;entryDx=0;entryDy=0;endArrow=none;endFill=0;" edge="1" parent="1" source="E_HUkGmcdNxzFi-APGPb-135" target="E_HUkGmcdNxzFi-APGPb-84">
          <mxGeometry relative="1" as="geometry" />
        </mxCell>
        <mxCell id="E_HUkGmcdNxzFi-APGPb-135" value="Num" style="ellipse;whiteSpace=wrap;html=1;align=center;fontStyle=4;" vertex="1" parent="1">
          <mxGeometry x="967.5" y="1710" width="60" height="20" as="geometry" />
        </mxCell>
        <mxCell id="E_HUkGmcdNxzFi-APGPb-136" value="Kilometraje" style="ellipse;whiteSpace=wrap;html=1;align=center;" vertex="1" parent="1">
          <mxGeometry x="1167.5" y="1400" width="70" height="20" as="geometry" />
        </mxCell>
        <mxCell id="E_HUkGmcdNxzFi-APGPb-137" style="edgeStyle=orthogonalEdgeStyle;rounded=0;orthogonalLoop=1;jettySize=auto;html=1;exitX=1;exitY=0.5;exitDx=0;exitDy=0;entryX=0;entryY=0.5;entryDx=0;entryDy=0;endArrow=none;endFill=0;" edge="1" parent="1" source="E_HUkGmcdNxzFi-APGPb-138" target="E_HUkGmcdNxzFi-APGPb-65">
          <mxGeometry relative="1" as="geometry" />
        </mxCell>
        <mxCell id="E_HUkGmcdNxzFi-APGPb-138" value="marca" style="ellipse;whiteSpace=wrap;html=1;align=center;" vertex="1" parent="1">
          <mxGeometry x="1537.5" y="1270" width="50" height="20" as="geometry" />
        </mxCell>
        <mxCell id="E_HUkGmcdNxzFi-APGPb-139" style="edgeStyle=orthogonalEdgeStyle;rounded=0;orthogonalLoop=1;jettySize=auto;html=1;exitX=1;exitY=0.5;exitDx=0;exitDy=0;entryX=0;entryY=0.75;entryDx=0;entryDy=0;endArrow=none;endFill=0;" edge="1" parent="1" source="E_HUkGmcdNxzFi-APGPb-140" target="E_HUkGmcdNxzFi-APGPb-65">
          <mxGeometry relative="1" as="geometry" />
        </mxCell>
        <mxCell id="E_HUkGmcdNxzFi-APGPb-140" value="seguro" style="ellipse;whiteSpace=wrap;html=1;align=center;" vertex="1" parent="1">
          <mxGeometry x="1537.5" y="1300" width="50" height="20" as="geometry" />
        </mxCell>
        <mxCell id="E_HUkGmcdNxzFi-APGPb-141" style="edgeStyle=orthogonalEdgeStyle;rounded=0;orthogonalLoop=1;jettySize=auto;html=1;exitX=1;exitY=0.5;exitDx=0;exitDy=0;entryX=0;entryY=0.25;entryDx=0;entryDy=0;endArrow=none;endFill=0;" edge="1" parent="1" source="E_HUkGmcdNxzFi-APGPb-142" target="E_HUkGmcdNxzFi-APGPb-65">
          <mxGeometry relative="1" as="geometry" />
        </mxCell>
        <mxCell id="E_HUkGmcdNxzFi-APGPb-142" value="modelo" style="ellipse;whiteSpace=wrap;html=1;align=center;" vertex="1" parent="1">
          <mxGeometry x="1537.5" y="1240" width="50" height="20" as="geometry" />
        </mxCell>
        <mxCell id="E_HUkGmcdNxzFi-APGPb-143" style="edgeStyle=orthogonalEdgeStyle;rounded=0;orthogonalLoop=1;jettySize=auto;html=1;exitX=1;exitY=0.5;exitDx=0;exitDy=0;entryX=0.25;entryY=0;entryDx=0;entryDy=0;endArrow=none;endFill=0;" edge="1" parent="1" source="E_HUkGmcdNxzFi-APGPb-144" target="E_HUkGmcdNxzFi-APGPb-65">
          <mxGeometry relative="1" as="geometry" />
        </mxCell>
        <mxCell id="E_HUkGmcdNxzFi-APGPb-144" value="patente" style="ellipse;whiteSpace=wrap;html=1;align=center;fontStyle=4;" vertex="1" parent="1">
          <mxGeometry x="1537.5" y="1210" width="50" height="20" as="geometry" />
        </mxCell>
        <mxCell id="E_HUkGmcdNxzFi-APGPb-145" value="numero" style="ellipse;whiteSpace=wrap;html=1;align=center;fontStyle=4;" vertex="1" parent="1">
          <mxGeometry x="2167.5" y="1540" width="60" height="20" as="geometry" />
        </mxCell>
        <mxCell id="E_HUkGmcdNxzFi-APGPb-146" value="fecha" style="ellipse;whiteSpace=wrap;html=1;align=center;" vertex="1" parent="1">
          <mxGeometry x="2167.5" y="1580" width="60" height="20" as="geometry" />
        </mxCell>
        <mxCell id="E_HUkGmcdNxzFi-APGPb-147" value="descripcion" style="ellipse;whiteSpace=wrap;html=1;align=center;" vertex="1" parent="1">
          <mxGeometry x="1712.5" y="1600" width="70" height="20" as="geometry" />
        </mxCell>
        <mxCell id="E_HUkGmcdNxzFi-APGPb-148" value="costo" style="ellipse;whiteSpace=wrap;html=1;align=center;" vertex="1" parent="1">
          <mxGeometry x="1787.5" y="1600" width="40" height="20" as="geometry" />
        </mxCell>
        <mxCell id="E_HUkGmcdNxzFi-APGPb-149" value="antigüedad" style="ellipse;whiteSpace=wrap;html=1;align=center;" vertex="1" parent="1">
          <mxGeometry x="1477.5" y="1490" width="70" height="20" as="geometry" />
        </mxCell>
        <mxCell id="E_HUkGmcdNxzFi-APGPb-150" value="CUIL" style="ellipse;whiteSpace=wrap;html=1;align=center;fontStyle=4;" vertex="1" parent="1">
          <mxGeometry x="1455" y="1910" width="50" height="20" as="geometry" />
        </mxCell>
        <mxCell id="E_HUkGmcdNxzFi-APGPb-151" value="sueldo" style="ellipse;whiteSpace=wrap;html=1;align=center;" vertex="1" parent="1">
          <mxGeometry x="1477.5" y="1530" width="60" height="20" as="geometry" />
        </mxCell>
        <mxCell id="E_HUkGmcdNxzFi-APGPb-171" style="edgeStyle=orthogonalEdgeStyle;rounded=0;orthogonalLoop=1;jettySize=auto;html=1;exitX=0.5;exitY=1;exitDx=0;exitDy=0;entryX=0.25;entryY=0;entryDx=0;entryDy=0;endArrow=none;endFill=0;" edge="1" parent="1" source="E_HUkGmcdNxzFi-APGPb-153" target="E_HUkGmcdNxzFi-APGPb-102">
          <mxGeometry relative="1" as="geometry" />
        </mxCell>
        <mxCell id="E_HUkGmcdNxzFi-APGPb-153" value="nombre" style="ellipse;whiteSpace=wrap;html=1;align=center;" vertex="1" parent="1">
          <mxGeometry x="1557.5" y="1705" width="50" height="20" as="geometry" />
        </mxCell>
        <mxCell id="E_HUkGmcdNxzFi-APGPb-172" style="edgeStyle=orthogonalEdgeStyle;rounded=0;orthogonalLoop=1;jettySize=auto;html=1;exitX=0.5;exitY=1;exitDx=0;exitDy=0;entryX=0.75;entryY=0;entryDx=0;entryDy=0;endArrow=none;endFill=0;" edge="1" parent="1" source="E_HUkGmcdNxzFi-APGPb-154" target="E_HUkGmcdNxzFi-APGPb-102">
          <mxGeometry relative="1" as="geometry" />
        </mxCell>
        <mxCell id="E_HUkGmcdNxzFi-APGPb-154" value="codigo" style="ellipse;whiteSpace=wrap;html=1;align=center;fontStyle=4;" vertex="1" parent="1">
          <mxGeometry x="1607.5" y="1725" width="50" height="20" as="geometry" />
        </mxCell>
        <mxCell id="E_HUkGmcdNxzFi-APGPb-155" value="nombre" style="ellipse;whiteSpace=wrap;html=1;align=center;fontStyle=4;" vertex="1" parent="1">
          <mxGeometry x="2147.5" y="1780" width="60" height="20" as="geometry" />
        </mxCell>
        <mxCell id="E_HUkGmcdNxzFi-APGPb-156" value="orientacion" style="ellipse;whiteSpace=wrap;html=1;align=center;fontStyle=4;" vertex="1" parent="1">
          <mxGeometry x="1665" y="2200" width="70" height="20" as="geometry" />
        </mxCell>
        <mxCell id="E_HUkGmcdNxzFi-APGPb-157" value="Valor al que fue adquirido" style="ellipse;whiteSpace=wrap;html=1;align=center;rotation=0;" vertex="1" parent="1">
          <mxGeometry x="1087.5" y="1370" width="150" height="20" as="geometry" />
        </mxCell>
        <mxCell id="E_HUkGmcdNxzFi-APGPb-174" style="edgeStyle=orthogonalEdgeStyle;rounded=0;orthogonalLoop=1;jettySize=auto;html=1;exitX=0.5;exitY=0;exitDx=0;exitDy=0;entryX=0.5;entryY=1;entryDx=0;entryDy=0;endArrow=classic;endFill=1;" edge="1" parent="1" source="E_HUkGmcdNxzFi-APGPb-159" target="E_HUkGmcdNxzFi-APGPb-102">
          <mxGeometry relative="1" as="geometry" />
        </mxCell>
        <mxCell id="E_HUkGmcdNxzFi-APGPb-159" value="Vive" style="shape=rhombus;perimeter=rhombusPerimeter;whiteSpace=wrap;html=1;align=center;fillColor=default;" vertex="1" parent="1">
          <mxGeometry x="1547.5" y="1920" width="120" height="60" as="geometry" />
        </mxCell>
        <mxCell id="E_HUkGmcdNxzFi-APGPb-160" style="edgeStyle=orthogonalEdgeStyle;rounded=0;sketch=0;orthogonalLoop=1;jettySize=auto;html=1;exitX=0.5;exitY=1;exitDx=0;exitDy=0;startArrow=none;startFill=0;endArrow=none;endFill=0;" edge="1" parent="1" source="E_HUkGmcdNxzFi-APGPb-147" target="E_HUkGmcdNxzFi-APGPb-147">
          <mxGeometry relative="1" as="geometry" />
        </mxCell>
        <mxCell id="E_HUkGmcdNxzFi-APGPb-161" value="datos personales" style="ellipse;whiteSpace=wrap;html=1;align=center;" vertex="1" parent="1">
          <mxGeometry x="1410" y="1880" width="120" height="20" as="geometry" />
        </mxCell>
        <mxCell id="E_HUkGmcdNxzFi-APGPb-162" style="edgeStyle=orthogonalEdgeStyle;rounded=0;orthogonalLoop=1;jettySize=auto;html=1;exitX=1;exitY=0.5;exitDx=0;exitDy=0;entryX=0;entryY=0.75;entryDx=0;entryDy=0;endArrow=none;endFill=0;" edge="1" parent="1" source="E_HUkGmcdNxzFi-APGPb-163" target="E_HUkGmcdNxzFi-APGPb-75">
          <mxGeometry relative="1" as="geometry" />
        </mxCell>
        <mxCell id="E_HUkGmcdNxzFi-APGPb-163" value="Sucedio" style="shape=rhombus;perimeter=rhombusPerimeter;whiteSpace=wrap;html=1;align=center;fillColor=default;" vertex="1" parent="1">
          <mxGeometry x="1757.5" y="1645" width="120" height="60" as="geometry" />
        </mxCell>
        <mxCell id="E_HUkGmcdNxzFi-APGPb-164" value="num" style="ellipse;whiteSpace=wrap;html=1;align=center;fontStyle=4;" vertex="1" parent="1">
          <mxGeometry x="990" y="2260" width="60" height="20" as="geometry" />
        </mxCell>
        <mxCell id="E_HUkGmcdNxzFi-APGPb-177" value="&lt;div&gt;Fue remitido&lt;/div&gt;&lt;div&gt;por&lt;/div&gt;" style="shape=rhombus;perimeter=rhombusPerimeter;whiteSpace=wrap;html=1;align=center;rounded=0;" vertex="1" parent="1">
          <mxGeometry x="1287.5" y="2060" width="120" height="60" as="geometry" />
        </mxCell>
      </root>
    </mxGraphModel>
  </diagram>
</mxfile>
